<?xml version="1.0" standalone="no"?>
<!DOCTYPE svg PUBLIC "-//W3C//DTD SVG 1.1//EN" "http://www.w3.org/Graphics/SVG/1.1/DTD/svg11.dtd" >
<svg xmlns="http://www.w3.org/2000/svg">
<metadata>
Created by FontForge 20120731 at Sun Jul 23 12:04:41 2017
 By admin
</metadata>
<defs>
<font id="iconfont" horiz-adv-x="1024" >
  <font-face 
    font-family="iconfont"
    font-weight="500"
    font-stretch="normal"
    units-per-em="1024"
    panose-1="2 0 6 3 0 0 0 0 0 0"
    ascent="896"
    descent="-128"
    x-height="792"
    bbox="-9 -574 1205 896.4"
    underline-thickness="0"
    underline-position="0"
    unicode-range="U+0078-E76E"
  />
<missing-glyph 
 />
    <glyph glyph-name=".notdef" 
 />
    <glyph glyph-name=".notdef" 
 />
    <glyph glyph-name=".null" horiz-adv-x="0" 
 />
    <glyph glyph-name="nonmarkingreturn" horiz-adv-x="341" 
 />
    <glyph glyph-name="x" unicode="x" horiz-adv-x="1001" 
d="M281 543q-27 -1 -53 -1h-83q-18 0 -36.5 -6t-32.5 -18.5t-23 -32t-9 -45.5v-76h912v41q0 16 -0.5 30t-0.5 18q0 13 -5 29t-17 29.5t-31.5 22.5t-49.5 9h-133v-97h-438v97zM955 310v-52q0 -23 0.5 -52t0.5 -58t-10.5 -47.5t-26 -30t-33 -16t-31.5 -4.5q-14 -1 -29.5 -0.5
t-29.5 0.5h-32l-45 128h-439l-44 -128h-29h-34q-20 0 -45 1q-25 0 -41 9.5t-25.5 23t-13.5 29.5t-4 30v167h911zM163 247q-12 0 -21 -8.5t-9 -21.5t9 -21.5t21 -8.5q13 0 22 8.5t9 21.5t-9 21.5t-22 8.5zM316 123q-8 -26 -14 -48q-5 -19 -10.5 -37t-7.5 -25t-3 -15t1 -14.5
t9.5 -10.5t21.5 -4h37h67h81h80h64h36q23 0 34 12t2 38q-5 13 -9.5 30.5t-9.5 34.5q-5 19 -11 39h-368zM336 498v228q0 11 2.5 23t10 21.5t20.5 15.5t34 6h188q31 0 51.5 -14.5t20.5 -52.5v-227h-327z" />
    <glyph glyph-name="share" unicode="&#xe614;" 
d="M793 271q-72 0 -122 -52l-272 157q1 4 1 8t-1 8l272 157q50 -52 122 -52q70 0 119.5 49t49.5 119t-49.5 119.5t-119.5 49.5t-119 -49.5t-49 -119.5v-7l-272 -158q-50 53 -122 53q-70 0 -119.5 -49.5t-49.5 -119.5t49.5 -119.5t119.5 -49.5q72 0 122 53l272 -158v-7
q0 -70 49 -119.5t119 -49.5t119.5 49.5t49.5 119.5t-49.5 119t-119.5 49zM793.5 722q23.5 0 40 -16.5t16.5 -40t-16.5 -40t-40 -16.5t-40 16.5t-16.5 40t16.5 40t40 16.5zM230.5 328q-23.5 0 -39.5 16.5t-16 39.5t16 39.5t39.5 16.5t40 -16.5t16.5 -39.5t-16.5 -39.5
t-40 -16.5zM793.5 47q-23.5 0 -40 16t-16.5 39.5t16.5 40t40 16.5t40 -16.5t16.5 -40t-16.5 -39.5t-40 -16z" />
    <glyph glyph-name="arrow-up" unicode="&#xe61b;" 
d="M499 620l-471 -472h969z" />
    <glyph glyph-name="setting" unicode="&#xe612;" 
d="M884 293h-47q-11 -41 -33 -78l44 -43q21 -21 21 -50.5t-21 -50.5l-25 -25q-21 -21 -50.5 -21t-50.5 21l-44 44q-36 -21 -77 -32v-46q0 -29 -21 -50t-50 -21h-36q-29 0 -50 21t-21 50v46q-41 11 -78 32l-43 -44q-21 -21 -50.5 -21t-50.5 21l-25 25q-21 21 -21 50.5
t21 50.5l44 43q-22 37 -33 78h-47q-29 0 -50 21t-21 50v36q0 29 21 50t50 21h46q12 41 32 77l-42 42q-21 21 -21 50t21 50l25 25q21 21 50.5 21t50.5 -21l41 -41q37 23 80 34v48q0 29 21 50t50 21h36q29 0 50 -21t21 -50v-48q42 -11 80 -34l41 41q21 21 50.5 21t50.5 -21
l25 -25q21 -21 21 -50t-21 -50l-42 -42q20 -36 31 -77h47q29 0 50 -21t21 -50v-36q0 -29 -21 -50t-50 -21zM512 576q-81 0 -138 -57t-57 -138t57 -138.5t138 -57.5t138 57.5t57 138.5t-57 138t-138 57zM512 294q-37 0 -63 26t-26 63t26 63t63 26t63 -26t26 -63t-26 -63
t-63 -26z" />
    <glyph glyph-name="wujiaoxing" unicode="&#xe673;" 
d="M514 749l106 -326h342l-277 -201l106 -326l-277 201l-277 -201l106 326l-278 201h343zM514 749z" />
    <glyph glyph-name="camera" unicode="&#xe6ed;" 
d="M521 509q-71 0 -122 -51t-51 -123t51 -123t122.5 -51t122.5 51t51 123t-51 123t-123 51v0zM891 658h-163l-64 83q-6 7 -15 7h-265q-9 0 -15 -8l-60 -82h-176q-28 0 -48 -20t-20 -48v-504q0 -28 20 -48t48 -20h758q28 0 48 20t20 48v504q0 28 -20 48t-48 20v0zM521 124
q-87 0 -149 62t-62 149t62 149t149.5 62t149 -62t61.5 -149t-61.5 -149t-149.5 -62v0zM811 500q-12 0 -20 8t-8 19t8 19t19.5 8t19.5 -8t8 -19t-8 -19t-19 -8v0zM811 500z" />
    <glyph glyph-name="follow" unicode="&#xe60b;" horiz-adv-x="1025" 
d="M64 480h896v-192h-896v192zM416 832h192v-896h-192v896zM416 832z" />
    <glyph glyph-name="letter" unicode="&#xe642;" 
d="M908 784h-764q-27 0 -46.5 -19.5t-19.5 -46.5v-586q0 -27 19.5 -46.5t46.5 -19.5h764q27 0 46.5 19.5t19.5 46.5v586q0 27 -19.5 46.5t-46.5 19.5zM888 673l-343 -342q-8 -9 -21 -8q-12 -1 -21 8l-342 342q-8 9 -8 20.5t8 20t20 8.5t20 -8l323 -323l323 323q9 8 20.5 8
t20 -8.5t8.5 -20t-8 -20.5z" />
    <glyph glyph-name="arrow-right" unicode="&#xe60d;" 
d="M257 11l374 373l-373 373q-3 4 0 6l63 64q3 3 6 0l440 -439q3 -4 0 -7l-1 -1l-63 -62l-376 -377q-3 -3 -6 0l-64 64q-3 2 0 6z" />
    <glyph glyph-name="editor" unicode="&#xe620;" 
d="M899 191q-9 159 -154 227q114 61 114 194q-8 108 -89 163t-230 64h-398l6 -910h421q330 0 330 262zM529 714q82 -4 125 -31.5t51 -82.5q-4 -63 -47 -94.5t-129 -36.5h-227v245h227zM745 196q0 -142 -187 -142h-256v284h244q191 -8 199 -142z" />
    <glyph glyph-name="picture" unicode="&#xe605;" horiz-adv-x="1085" 
d="M334 493q34 0 58.5 25t24.5 60t-24.5 60t-59 25t-59 -25t-24.5 -60t24.5 -60t59.5 -25v0zM709 546l-247 -355l-128 181l-209 -303h834zM1043 896h-1001q-18 0 -30 -12.5t-12 -29.5v-892q0 -17 12 -29.5t30 -12.5h1001q17 0 29 12.5t12 29.5v892q0 17 -12 29.5t-29 12.5v0
zM1001 5h-918v806h918v-806z" />
    <glyph glyph-name="whale" unicode="&#xe641;" 
d="M512 384zM65 384q0 -91 35.5 -174t95 -142.5t142.5 -95t174 -35.5t174 35.5t142.5 95t95 142.5t35.5 174t-35.5 174t-95 142.5t-142.5 95t-174 35.5t-174 -35.5t-142.5 -95t-95 -142.5t-35.5 -174zM950 291l-195 194l-360 -108l-98 5l-69 -85l355 -355q137 22 237.5 118
t129.5 231zM623 251q-2 3 -9 4t-38 1q-34 0 -37 -4l-1 -1q-11 -13 -17 -19t-16 -10.5t-23 -4.5h-1t-2 1v0q-10 0 -10 -10q0 -5 5 -8q23 -16 50 -16q30 0 60.5 16.5t39.5 41.5q1 2 1 3q0 3 -2 6zM531 503h217q-44 54 -105 54h-114q-61 0 -114.5 -39t-82.5 -98
q30 38 83.5 60.5t115.5 22.5zM755 485h-224q-69 0 -126.5 -28.5t-80.5 -74.5l-3 -5l-1 -1q26 -62 81.5 -99t122.5 -37h119q60 0 103 43t43 103v0q0 53 -34 99zM320 384l-2 4q-20 56 -74 84q-1 1 -4 1q-4 0 -6 -3q-3 -3 -3 -6t2 -5q24 -33 24 -73q0 -44 -29 -78q-2 -3 -2 -6
q0 -9 9 -9q2 0 4 1q57 25 81 83v3.5v3.5zM705 290h-2q-37 16 -58.5 49t-21.5 72q0 14 2 27q1 5 6 4q4 -1 4 -5v-1q-3 -12 -3 -25v0q0 -36 20.5 -66.5t54.5 -45.5q3 -1 3 -4q0 -1 -1 -2q-1 -3 -4 -3zM697 425zM679 424.5q0 -7.5 5 -12.5t12.5 -5t12.5 5t5 12.5t-5 12.5
t-12.5 5t-12.5 -5t-5 -12.5z" />
    <glyph glyph-name="bottle" unicode="&#xe647;" 
d="M512 384zM64 384q0 -91 35.5 -174t95.5 -143t143 -95.5t174 -35.5t174 35.5t143 95.5t95.5 143t35.5 174t-35.5 174t-95.5 143t-143 95.5t-174 35.5t-174 -35.5t-143 -95.5t-95.5 -143t-35.5 -174zM912 183l-150 150l-70 -24l-46 -13l-54 13l-42 20h-54l-33 -24l-49 -7
l-31 9l-47 20l-52 6v-168l11 -11l218 -218q129 1 236 68.5t163 178.5zM414 351q28 0 54.5 18t55 18t57 -18t56.5 -18l-4 10l-32 97q-11 32 -39 51t-62 17l-42 126q9 4 12.5 13t0.5 18l-2 6q-3 10 -13 15t-20 1l-55 -18q-10 -3 -15 -13t-1 -20l2 -6q3 -9 11.5 -14t17.5 -3
l43 -126q-28 -19 -39 -50.5t0 -64.5l11 -34zM637.5 118q-31.5 0 -63.5 20q-25 16 -50.5 16t-51.5 -16q-31 -20 -62.5 -20t-63.5 20q-25 16 -51 16q-4 0 -7.5 3.5t-3.5 8t3.5 8t7.5 3.5q32 0 63 -20q26 -17 51.5 -17t50.5 17q32 20 63.5 20t62.5 -20q26 -17 51 -17t51 17
q31 20 63 20q5 0 8 -3.5t3 -8t-3 -8t-8 -3.5q-25 0 -51 -16q-31 -20 -62.5 -20zM637.5 202q-31.5 0 -63.5 20q-25 16 -50.5 16t-51.5 -16q-31 -20 -62.5 -20t-63.5 20q-25 16 -51 16q-4 0 -7.5 3.5t-3.5 8t3.5 7.5t7.5 3q32 0 63 -20q26 -16 51.5 -16t50.5 16q32 20 63.5 20
t62.5 -20q26 -16 51.5 -16t50.5 16q31 20 63 20q5 0 8 -3t3 -7.5t-3 -8t-8 -3.5q-25 0 -51 -16q-31 -20 -62.5 -20zM637.5 285q-31.5 0 -63.5 20q-25 17 -50.5 17t-51.5 -17q-31 -20 -62.5 -20t-63.5 20q-25 17 -51 17q-4 0 -7.5 3t-3.5 8t3.5 8t7.5 3q32 0 63 -20
q26 -16 51.5 -16t50.5 16q32 20 63.5 20t62.5 -20q26 -16 51.5 -16t50.5 16q31 20 63 20q5 0 8 -3t3 -8t-3 -8t-8 -3q-25 0 -51 -17q-31 -20 -62.5 -20zM434 380q-4 0 -5 4q-2 5 3 7l147 51q5 1 7 -4t-3 -7l-147 -51h-2v0zM560 455v0q-5 0 -8 4q-15 18 -38 16q-11 0 -12 11
q0 5 3 8.5t8 3.5q34 2 56 -24q7 -9 -1 -16q-4 -3 -8 -3v0z" />
    <glyph glyph-name="arrow-down" unicode="&#xe658;" 
d="M515 146l473 474h-947z" />
    <glyph glyph-name="ask-more" unicode="&#xe60c;" 
d="M489 716l-335 -341q-10 -11 -10 -26.5t10.5 -26t25.5 -10.5t26 11l311 317l312 -317q11 -11 26 -11t25.5 10.5t10.5 26t-11 26.5l-335 341q-11 12 -28 10q-16 2 -28 -10v0v0zM517 459q-16 1 -28 -10l-335 -341q-10 -11 -10 -26.5t10.5 -26t25.5 -10.5t26 10l311 318
l312 -318q11 -10 26 -10t25.5 10.5t10.5 26t-11 26.5l-335 341q-11 11 -28 10v0v0v0z" />
    <glyph glyph-name="children" unicode="&#xe61f;" 
d="M0 368v-12q0 -29 7 -59v0q29 -170 156.5 -288t300.5 -134h2q5 -1 9 -1h4q3 -1 8 -1h2.5h2.5h4.5h2.5h9q2 -1 4 -1v0q5 0 12 1h1h11h3q6 1 10 1h4q3 0 7 1q171 16 297.5 132.5t157.5 284.5q4 17 7 56v0h1v0v6v2v0v1q6 72 -15 149v3q-43 168 -181 277.5t-315 109.5
q-183 0 -323 -114.5t-177 -288.5q-10 -34 -12 -94v-15v-1v-15zM1021 439q-5 37 -13 67v3q-8 30 -19 59v0l-21 -11l-27 -2l-71 1l-34 -7l-25 7l-54 -10l-12 -11l-68 25l-14 -6l-37 15l-63 -40l-20 6l-37 -29l-47 14l-82 73l-15 -8l-17 -19l-30 21l-18 -10l-44 28l-33 -11h-34
l-61 -43l-17 7l-35 -9l-54 -25q-4 -16 -7 -31q-10 -34 -12 -94v-14l18 11l38 23l22 -3l30 -26l23 -6l32 9l30 -17l55 -14l93 4l33 53l31 23l41 -35l109 51l91 -53l10 -19l23 -14l16 -19l32 28l6 24l27 8l12 21l30 7l41 -27l35 -45l52 16l59 35l23 5zM0 368v-12q0 -29 7 -59
v0q3 -18 8 -36l36 2l56 -36l70 3l31 44l15 -9l49 34l17 -14l27 10l48 -19l37 -36l48 12l16 -24l27 7l63 -28l70 35l22 2l30 14l10 16l30 14l19 4l29 -11l22 18l22 -15l50 14l21 -3l55 -44l12 9l46 -32l7 3q9 30 15 61q4 17 7 56v0h1v0v6v2v0v1q3 34 -2 82l-9 -14l-23 -5
l-59 -34l-52 -17l-35 45l-41 27l-30 -7l-12 -21l-27 -8l-6 -24l-32 -28l-16 19l-23 14l-10 19l-91 53l-109 -51l-41 35l-31 -23l-33 -53l-93 -4l-55 14l-30 17l-32 -9l-23 6l-30 26l-22 3l-38 -23l-18 -11v-2v-15zM223 265l-15 9l-31 -44l-70 -3l-56 36l-36 -2
q39 -157 162.5 -264t286.5 -122h2q5 -1 9 -1h4q3 -1 8 -1h2.5h2.5h4.5h2.5h9q2 -1 4 -1v0q5 0 12 1h1h11h3q6 1 10 1h4q3 0 7 1q154 14 274 112t166 244l-7 -3l-46 32l-12 -9l-55 44l-21 3l-50 -14l-22 15l-22 -18l-29 11l-19 -4l-30 -14l-10 -16l-30 -14l-22 -2l-70 -35
l-63 28l-27 -7l-16 24l-48 -12l-37 36l-48 19l-27 -10l-17 14zM235 718v0q15 0 28 -7q16 15 37 15q18 0 32.5 -11.5t18.5 -28.5q8 -3 16 -10t11 -15h4q17 0 29 -12t12 -29t-12 -29.5t-29 -12.5q-10 0 -20 5q-3 -13 -14 -21t-25 -8q-17 0 -29 12q-12 -12 -30 -12v0v0
q-16 0 -28 11q-12 -14 -30 -14v0v0q-17 0 -29 12q-5 -1 -11 -1v0q-20 0 -34.5 14.5t-14.5 35t14.5 34.5t34.5 14h5q2 24 20.5 41t43.5 17zM693 738q11 0 20 -4q10 10 25 10v0q12 0 22 -8t13 -19q13 -5 18 -18q1 1 3 1v0q11 0 19.5 -8.5t8.5 -20t-8.5 -20t-19.5 -8.5
q-7 0 -14 4q-5 -21 -27 -21v0q-11 0 -20 9q-8 -9 -20 -9v0v0q-11 0 -19 8q-8 -9 -21 -9v0v0q-11 0 -19 8q-4 -1 -8 -1v0q-13 0 -23 10t-10 24t10 23.5t23 9.5h3q2 17 14.5 28t29.5 11zM462.5 857q31.5 0 53.5 -22.5t22 -54t-22 -53.5t-53.5 -22t-54 22t-22.5 53.5t22.5 54
t54 22.5zM177 649q2 0 4 0.5t9 1t11 -1.5q5 0 16.5 -5.5t18.5 -5.5q10 0 10 4q-8 -2 -10 5q-2 5 2.5 9t16.5 13q19 12 14 24q-3 -4 -14 -10q-5 -2 -9.5 -6t-9.5 -9.5t-8 -8.5q-7 -6 -9 -6.5t-8 0.5q-25 5 -34 -4zM443 -123q4 22 24 51q8 12 11 18q5 7 5.5 13t-2 11.5t-4.5 9
t-7 8.5q-7 7 -9 10l-2 3v1h1q27 14 59 14h1q33 0 61 -15v0v-1l-1 -1q-3 -4 -9 -11q-5 -5 -7.5 -8.5t-5 -9t-1.5 -11.5t5 -13t12 -18q19 -27 23 -48q-18 -3 -37 -5q-3 -1 -7 -1h-4q-4 0 -10 -1h-3h-11h-1q-7 -1 -12 -1v0q-2 0 -4 1h-9h-3h-4h-2.5h-2.5q-5 0 -8 1h-4
q-4 0 -9 1h-2q-11 1 -21 2zM412 70l-118 250l-73 38l5 -69h-1zM289 332l-36 76l6 4l36 -77l17 155l77 -98l-8 91l8 1l8 -93l100 156l108 -142l-2 93h8l2 -87l56 94l43 -145l28 83l7 -3l-27 -79l70 55l11 -70l10 15l6 -5l-203 -306l-8 341l-108 142l-100 -155l26 -332
l-232 269l6 6l19 -23l-5 73zM302 322l116 -246l-27 301l-74 93zM795 337l-10 64l-70 -54l-88 -262zM707 347l-40 139l-54 -90l8 -307zM814 332q-10 36 -49 65q-21 15 -22 7q-41 45 -94.5 72.5t-114 32t-119.5 -13.5t-117 -69.5t-102 -131.5q-76 192 42 302q89 82 249 90
q151 7 261 -56q117 -68 108 -180q-4 -56 -42 -118zM564 -20l-8 2l60 85l8 -3zM474 0l-56 49l7 4l56 -50zM504 95q0 2 -4 4v0l-2 3q1 2 1.5 4t0.5 4v1l-5 9l-3 -9l-1 -2h-1v-3q-1 -2 -1 -3l-2 7l-1 -1l-2 9q-2 -1 -4 -3v5h-2l2 10q-14 -5 -26 -4q-5 0 -8.5 0.5t-4.5 1.5l-2 1
q8 -9 19 -13h-3q-5 0 -9 1t-5 2l-1 1q10 -12 23 -14l-1 -1q-5 -2 -8.5 -2.5t-5.5 0.5h-1q1 -1 3 -1.5t7.5 -2t10.5 -1.5q-2 -1 -3 -1q-5 -2 -8.5 -2.5t-5.5 -0.5h-1q1 0 3.5 -1t10 -3t13.5 0l-20 -12q14 4 25 9v-1l-13 -20q15 10 22 18q-1 -4 -2 -7q-2 -5 -3.5 -8.5
t-3.5 -3.5l-1 -1q3 1 7 3t10.5 10t5.5 18zM533 97q0 2 5 4v0l2 2q-1 3 -2 5t-1 3v1l5 10l3 -10l1 -2l1 1v-3q1 -2 1 -3l2 6h1q0 4 2 9v0q2 -1 5 -3l-1 5h2l-1 10q14 -5 25 -5q5 1 9 1.5t5 1.5l1 1q-8 -9 -19 -13h1.5h2.5q5 0 8.5 1t4.5 2h1q-10 -11 -23 -13l2 -1
q4 -2 8 -2.5t5 0.5h1q-1 -1 -3 -2t-7.5 -2.5t-10.5 -0.5q3 -1 4 -2q4 -1 8 -1.5t5 -0.5h1q-1 -1 -3.5 -2t-10 -2.5t-12.5 0.5l19 -12q-14 4 -25 9v-1l14 -21q-16 11 -23 19q1 -3 2 -8q2 -4 4 -7.5t3 -4.5h1q-3 1 -7 3t-10.5 10t-5.5 18zM591 155q-9 4 -16 -12t2 -20.5t16 12
t-2 20.5zM454 79h123q6 0 10.5 -4.5t4.5 -10.5v-46q0 -6 -4.5 -10.5t-10.5 -4.5h-123q-6 0 -10.5 4.5t-4.5 10.5v46q0 6 4.5 10.5t10.5 4.5zM542 76q0 -1 -24 -1.5t-24 -1.5q-5 -6 -9.5 -16.5t-9.5 -15t-17 -7.5q-10 -2 -2 -4q35 -7 35 -19l65 3q0 12 31 18q7 1 -3 3.5
t-14.5 11t-11.5 13.5q-10 7 -16 16zM543 121v-61q-10 -13 -24.5 -13t-24.5 13v61q0 16 12.5 22t24.5 0t12 -22zM543 121v-41q-14 -11 -24.5 -11t-24.5 11v41q0 16 12.5 22t24.5 0t12 -22zM518.5 79q-13.5 0 -33.5 18t-27 44q-9 30 7.5 59.5t53 29.5t53 -29.5t8.5 -59.5
q-8 -26 -28 -44t-33.5 -18zM447.5 155q9.5 4 16.5 -12t-2.5 -20.5t-16.5 12t2.5 20.5zM465 183q-1 -4 -1.5 -8.5t-0.5 -6v-5t0.5 -8t2 -12t4 -13t3.5 -6.5l2 -2q-4 3 -9.5 7t-13.5 18t-5 28q1 5 18 8v0zM567 177q4 -20 2 -35q-1 -7 -2.5 -11.5t-2.5 -6.5l-1 -1q3 2 7.5 5.5
t10.5 15.5t2 25q0 2 -4 4t-8 3zM446 160q21 23 52 24q49 0 75 -27q8 -8 13 -11.5t6 -3.5h1v0q2 4 3 8q1 3 4 7t2 6q-2 12 -1 16t-3 15.5t-13 20.5q-3 3 -10.5 11.5t-12.5 13.5t-15.5 10.5t-23.5 6.5t-20.5 0t-10 -2.5t-4.5 -3.5t-4 -2q-1 0 -6 -1t-7 -2t-6.5 -4t-8.5 -8.5
t-8 -13.5q-3 -6 -3.5 -11t-0.5 -10t-1 -7q0 -5 -2.5 -10.5t-2.5 -6.5q0 -5 8 -15zM480 -28v1q-3 5 -11 14q-6 6 -9 10q-4 6 -5 15q-4 -2 -10 -6l-1 -1v2q0 47 36 58v0q0 -1 -1 -2q-1 -2 0 -4q8 -9 38 -9h2h7.5h10.5t10 1t8.5 3t1.5 6q21 -6 29.5 -18.5t8.5 -34.5v-2l-2 1
q-5 4 -9 6q-1 -9 -6 -15q-2 -4 -8 -10q-9 -9 -11 -14l-1 -1q-38 -46 -78 0zM542 172q22 1 28 -24q3 -12 -3 -19t-20 -7q-14 -1 -24 16q0 1 -1 1q-2 4 -3.5 4t-3.5 -4v-1q-10 -17 -24 -17q-13 0 -20 6.5t-4 18.5q5 25 27 26h48zM542 172q22 1 28 -24q3 -12 -3 -19t-20 -7
q-14 -1 -24 16q0 1 -1 1q-2 4 -3.5 4t-3.5 -4v-1q-10 -17 -24 -17q-13 0 -20 6.5t-4 18.5q5 25 27 26h48zM542 175l-48 -1q-25 0 -30 -27q-3 -14 4.5 -21.5t22.5 -7.5q10 0 17 7q4 4 9 12l0.5 0.5l0.5 0.5q0 1 1 2q0 -1 1 -2v-0.5t1 -0.5q4 -8 10 -12q7 -6 16 -6q15 0 22 8
t4 21q-6 27 -31 27zM568.5 147.5q-5.5 23.5 -26.5 22.5h-24h-24q-20 -1 -25 -24q-2 -13 4.5 -18t17.5 -5q12 0 21 16q4 6 7 6t6 -6q10 -16 22 -15q27 0 21.5 23.5zM464 146q2 9 5 14l-16 4q-5 1 -6 -4l-4 -14v-1v-2q1 -2 3 -2l18 -4q-1 4 0 9zM573 148q-2 9 -5 14l14 4
q5 1 6 -4l4 -14q1 0 1 -1t-1 -2q-1 -2 -3 -2l-15 -4q0 4 -1 9zM446 46q4 5 9 9q4 3 9 6l2 1l12 3q0 -25 -2 -33q-3 -11 -13 -17v0q-3 -3 -6 -7q-7 -8 -12.5 -19t-10.5 -14.5t-17 -2.5q-25 2 -50 24q-5 9 0 16.5t14 5.5l8 -4q17 -10 23 -11.5t7.5 2.5t8 16.5t18.5 24.5z
M504 64q-5 -7 -7 -13q-1 -8 -1 -19.5t1 -19.5v-8q-20 -1 -24 8q-1 1 -4.5 -0.5t-5.5 -4.5l4 36q2 11 5 15q1 2 6 6.5t7 4.5zM494 85q-1 -7 3 -7q6 -3 22 -3q19 0 24 4v5l6 -3q-2 -9 1 -12l2 -2q3 -1 -2 -4q-10 -6 -32 -6q-17 0 -30 5q-10 5 -6 8q2 1 6 7q1 1 -0.5 3t0.5 3z
M529 111q-5 -18 -11 -18q-2 0 -5 4.5t-4 8.5l-1 5q4 2 10 2q11 0 11 -2zM379 18q4 -4 4 -10v0v0q0 -12 -11 -16q-2 2 -5 4q-5 9 -0.5 16t12.5 6zM368 -6l58 59l-6 6l-57 -60zM369 22q3 3 10.5 -5t4 -10.5t-10.5 5t-4 10.5zM364.5 19q3.5 3 10.5 -5t4 -10.5t-10.5 5t-4 10.5z
M361 16.5q3 2.5 10.5 -5t4 -10.5t-10.5 5t-4 10.5zM357 13q3 3 10.5 -5t4 -10.5t-10.5 5t-4 10.5zM590 40q-4 6 -9 10q-4 3 -9 6l-2 1l-13 3q0 -25 3 -33q1 -5 4.5 -9t6.5 -6l2 -2q1 -1 3.5 -4l2.5 -3q7 -8 12.5 -19t10.5 -14.5t17 -2.5q25 1 50 23q5 10 0 17.5t-14 5.5
l-8 -4q-17 -11 -23 -12t-8 3t-8 16.5t-18 23.5zM657 13q-4 -4 -4 -11v0q0 -12 11 -15q2 1 5 3q5 9 0.5 16.5t-12.5 6.5zM675 -16l-63 67l5 5l63 -67zM667 17q-3 3 -10.5 -5t-4.5 -11t10.5 5t4.5 11zM671.5 14q-3.5 3 -10.5 -5t-4 -11t10.5 5t4 11zM675 11q-3 3 -10.5 -5
t-4 -10.5t10.5 5t4 10.5zM678.5 8q-3.5 3 -10.5 -5t-4 -11t10.5 5t4 11zM459 79h10v-92l-8 8zM580 79h-11v-93l8 9zM855 437q-12 -5 -25 -5v0q-29 0 -49 21t-20 50q0 25 16.5 44.5t40.5 24.5q48 -59 37 -135zM179 373q31 0 52 -24q-19 -26 -35 -55q-16 41 -23 79h6zM207 560
q34 -21 34 -61q0 -29 -20 -49.5t-48 -20.5h-6q0 74 40 131zM340 518q36 0 56 -30q-62 -26 -114 -78q-11 18 -11 38q0 29 20 49.5t49 20.5zM524 518q22 0 39 -13q-27 5 -54 5q-9 0 -18 -1q15 9 33 9v0zM455.5 664q28.5 0 48.5 -20.5t20 -49.5t-20 -49.5t-48.5 -20.5
t-48.5 20.5t-20 49.5t20 49.5t48.5 20.5zM349 660q-1 -27 -21 -46.5t-47 -19.5v0q-18 0 -34 9q42 36 102 57zM671 663q-4 -25 -23 -42t-45 -17q-28 0 -48 20.5t-20 49.5q0 6 1 12q71 -3 135 -23zM652 532q28 0 48 -20.5t20 -49.5q0 -16 -6 -30q-54 47 -121 66q20 34 59 34z
M597 770q2 0 4 0.5t9 1t11 -1.5q5 -1 16.5 -6t18.5 -6q11 0 10 4q-8 -1 -10 6q-2 5 2.5 8.5t17.5 12.5q18 13 13 25q-3 -4 -13 -10q-5 -2 -10 -6t-10 -9.5t-8 -8.5q-7 -6 -9 -7t-8 1q-25 5 -34 -4z" />
    <glyph glyph-name="deer" unicode="&#xe627;" 
d="M512 896q139 0 257 -68.5t186.5 -186.5t68.5 -257t-68.5 -257t-186.5 -186.5t-257 -68.5t-257 68.5t-186.5 186.5t-68.5 257t68.5 257t186.5 186.5t257 68.5zM110 372v-10q0 -23 6 -46v0q23 -133 123 -226t235 -106h2h7l3 -1h7h1.5h2.5h2.5h2.5h6h4v0h9h2h8h2q4 0 8 1h3
h5q135 13 234.5 104.5t123.5 223.5q3 13 5 44v0h1v0v4v2v0v1q5 56 -12 117v2q-33 132 -141.5 217.5t-247.5 85.5q-143 0 -253 -89.5t-140 -226.5v0q-7 -26 -9 -73v-12v-1v-11zM213 375v-8q0 -16 4 -34v0q17 -99 91.5 -168t175.5 -79h1h6h2h5l1 -0.5t1.5 -0.5h2h2.5h4h3v0h7
h1q3 0 6 1h2h6h2q2 0 4 1q100 9 174 77t92 167q2 9 4 32v0v0v0q0 1 1 3v2v0v0q3 42 -9 87v2q-25 98 -105.5 162t-184.5 64q-107 0 -188.5 -67t-103.5 -169v0q-6 -19 -7 -54v-9v-1v-8zM325 378v-4q0 -11 3 -22v0q10 -62 56.5 -105t110.5 -49v0h4h1h3h1h1l1 -0.5l1 -0.5h3h2v0
h4h1q2 1 4 1h1h3h2h2q63 6 109 48.5t57 104.5q2 6 3 20v0v0v0v2v1v0v0q3 26 -5 55v1q-16 61 -66 101t-115 40q-67 0 -118 -42t-65 -105q-3 -13 -4 -34v-6v0v-6zM540.5 807q108.5 0 185.5 -77t77 -185.5t-77 -185t-185.5 -76.5t-185 76.5t-76.5 185t76.5 185.5t185 77z
M373 606q30 0 51.5 -21.5t21.5 -51t-21.5 -51t-51.5 -21.5t-51 21.5t-21 51t21 51t51 21.5zM980 176q-21 4 -78 18.5t-97 20.5t-79 3q-32 -3 -93.5 -18t-91.5 -18q-43 -4 -98.5 3.5t-99 18.5t-98.5 16.5t-98 -2.5q-16 -3 -33.5 -8t-40.5 -12.5t-34 -10.5q59 -141 187 -228
t286 -87q154 0 280.5 84t187.5 220zM570 600q30 0 51.5 -21t21.5 -51t-21.5 -51t-51.5 -21t-51 21t-21 51t21 51t51 21zM196 21q16 -1 46 0.5t121 17.5t181 44q88 28 153.5 42t131.5 11q56 -3 122 -16q-69 -114 -185.5 -181t-253.5 -67q-177 0 -316 109v40zM867 15
q-215 12 -391 68q-87 28 -153 42t-131 11q-55 -3 -119 -16q68 -113 185 -180.5t254 -67.5q102 0 193.5 37.5t161.5 105.5zM835 -13q-50 7 -152 21.5t-151 20.5q-135 17 -217 5q-57 -9 -137 -38q69 -59 154.5 -91.5t179.5 -32.5q182 0 323 115zM653 172q-23 28 -16 73
q2 6 3 15v0v0q7 29 10 42q4 11 -5 37q-2 6 -5 9.5t-9.5 8.5t-7.5 6q-17 15 -43 14q-11 0 -44 2q-2 0 -5 4q-1 3 -2 7q0 7 1 8q9 8 14 9q13 3 17 9q5 6 4.5 11.5t-7.5 7.5q-5 1 -10.5 7.5t-7.5 7.5q-1 0 -1 1.5t1 2.5q3 6 -4 10q5 1 6 1q12 6 13 7q10 9 17 19q8 12 15 13
q3 1 6 5q11 14 26 34q2 2 3 5q5 13 -3 28q-1 -2 -1 -6v-11q-7 -28 -42 -35q-5 -1 -3 5l10 29q6 14 11 20q19 21 6 52l-1 4q-3 -3 -2 -9l1 -20q-1 -11 -8 -16q-5 -3 -7 3q-3 8 -11 30l-3 5q-2 -3 -2 -5q0 -4 0.5 -11.5t0.5 -11.5q0 -8 -5 -10q-1 -1 -1 -4q1 -5 -2 -7.5
t-8 -0.5q-6 2 -7 3q-9 4 -22.5 17t-17.5 16q0 -3 2 -5q23 -29 38 -39q9 -6 15 -6q5 1 6 -0.5t1 -5.5q-3 -33 -29 -44q-6 -3 -19 -14q-9 -6 -25 -8q-4 0 -6 3q-2 2 2 6q9 8 13 25q2 9 -4 17q-1 -1 0 -2q2 -10 -4 -20.5t-16 -14.5q-7 -3 -14 0q-5 2 -10 3q-4 0 -6 4
q-5 15 -6 17q-3 -1 -2 -4q3 -10 3 -11q3 -6 -4 -6q-32 4 -50 17q-3 2 -3 3q-9 20 -8 28v7q-1 2 -3 2q0 -3 -1 -11.5t-1 -12.5h-2q-21 22 -19 44q0 4 5 36q0 1 2 11q0 1 -1 1h-1q-6 -14 -7 -15l-6 -16q-2 -4 -5 -3q-16 6 -17 19v8v8q0 3 -3 4q-2 -8 -2 -11q0 -12 2 -25
q0 -1 0.5 -9t1.5 -11q-9 4 -14.5 18t-7.5 16q-1 -13 1 -19q6 -18 22 -29q2 -1 5 -4q0 -1 2.5 -4t3.5 -5q4 -3 11.5 -9.5t11.5 -10.5q35 -34 82 -39q6 -1 7.5 -3t0.5 -9q-4 -17 2 -27q1 -1 1 -4q-1 -3 -2.5 -7t-2.5 -9t-2 -8q-5 -18 -6 -21q-4 -15 -9 -41q-1 -3 0 -7
q0 -3 1 -13.5t1 -16.5t0.5 -20t0.5 -21q1 -12 3 -23q3 -18 11 -27q12 -11 11 -27q0 -4 3 -17q0 -2 3.5 -12.5t4.5 -16.5t1 -12.5v-15t1 -13.5q0 -1 1 -13l0.5 -3t0.5 -4v-9q-1 -28 -2 -33q-7 -7 -7 -13h14q0 6 4 12q1 28 4 43v0q1 1 1 3q0 3 2 10.5t2 11.5v26.5v26.5
q0 3 0.5 7t0.5 5q0 3 1.5 6.5t6.5 7.5t13 4q6 2 10.5 -1.5t5.5 -8.5q2 -16 3 -35q0 -5 -2 -17q-3 -17 0 -21q2 -5 2.5 -11.5t0.5 -11.5v-11q-1 -28 -2 -33q-6 -7 -6 -13h12q1 6 4 12q1 19 2 34h1h-1q1 5 2 9h-1q3 13 3 28q0 18 8 49q0 1 2 4l3 -3q1 -1 5 -7t7 -9
q1 -1 6 -6.5t8 -8.5t6.5 -8t6 -9.5t2.5 -8.5q1 -2 1.5 -4.5t0.5 -3.5q0 -12 -1.5 -25.5t-2.5 -21.5l-1 -8l-14 -13h19q1 4 2 6.5t2 2.5v0q4 12 7 29v-1q1 2 1 3q13 61 8 78v1.5v0.5l6 -10t5.5 -13.5t2.5 -17.5v-18t-1 -17.5t-2 -15.5t-1.5 -11l-0.5 -4l-13 -13h18q1 4 2 6.5
t2 2.5h1q1 4 2.5 10.5t5.5 25.5t5.5 31.5t3 28.5t-3.5 17zM593 519q-2 -7 -11 -9.5t-16 0.5q10 3 27 9zM558 497l-29 -9q2 6 12.5 9.5t16.5 -0.5zM776 660q-18 -10 -38 -10h-1q-32 0 -54.5 22.5t-22.5 54.5v0q0 24 13 44q68 -40 103 -111zM188 695v0q8 0 8 -8.5t-8 -8.5v0
q-9 1 -9 9t9 8zM941.5 490q8.5 0 8.5 -8.5t-8.5 -8.5t-8.5 8.5t8.5 8.5zM124 538v0q8 0 8 -8.5t-8 -8.5v0q-9 0 -9 8.5t9 8.5zM864 705v0q8 0 8 -8.5t-8 -8.5v0q-9 0 -9 8.5t9 8.5zM847 550v0q8 0 8 -8.5t-8 -8.5v0q-9 0 -9 8.5t9 8.5zM677 831v0q9 0 9 -8.5t-9 -8.5v0
q-8 0 -8 8.5t8 8.5zM398 834v0q9 0 9 -8.5t-9 -8.5v0q-8 1 -8 9t8 8zM226 550v0q9 0 9 -8.5t-9 -8.5v0q-8 0 -8 8.5t8 8.5z" />
    <glyph glyph-name="sea" unicode="&#xe62c;" 
d="M0 368v-12q0 -29 7 -59v0q29 -170 156.5 -288.5t300.5 -134.5h2q8 -1 9 -1h4h8q1 0 2.5 -0.5t2.5 -0.5h5h2h9h4v0h12h1q6 0 11 1h3h10l4 1h7q171 16 297.5 133t157.5 285q4 17 7 56v0h1v6v2v0v1q6 72 -15 149v3q-43 168 -181 277.5t-315 109.5q-183 0 -323 -114.5
t-177 -288.5v0l-1 -1v-3l-1 -2l-1 -3q-8 -32 -9 -85v-15v-1v-15zM81 371v-11q0 -24 6 -49v0q24 -143 131.5 -243t253.5 -113h1q5 -1 8 -1h4q1 0 6 -1h2.5h1.5h4h2h7h4v0h10h1h9h3q5 1 8 1h4q3 1 5 1q144 13 251 111.5t132 240.5q4 14 7 47v0v0v0v5v1v0v1q5 61 -12 126l-1 2
q-35 142 -151.5 234t-265.5 92q-154 0 -272 -96.5t-149 -242.5l-1 -1v-3l-1 -1v-3q-7 -27 -8 -71v-13v-1v-12zM235 376v-7q0 -16 4 -32v0q16 -92 85 -156t162 -72h1q4 -1 5 -1h2h5h1h1l4 -1h5h2v0h6l1 1h6h2h5h2q2 0 4 1q92 8 160.5 71.5t85.5 154.5q2 8 4 30v0v0v3v1v0v0
q3 39 -8 81v2q-23 91 -97.5 150t-170.5 59q-99 0 -174.5 -62t-95.5 -156v0v-1l-1 -1v-1l-1 -2q-4 -17 -4 -46q-1 -4 -1 -8v-1v-7zM380 380v-3q0 -8 2 -15v0q8 -44 40.5 -74.5t77.5 -34.5v0h1.5h1.5h1h2h1l2 -1h2h1v0h3v1h2h1h1h2h2h1q44 4 76.5 34t40.5 73q1 5 2 15v0v1v1v0
v0q2 18 -3 38l-1 1q-10 43 -45.5 71.5t-81.5 28.5q-47 0 -83 -29.5t-46 -74.5v0v-1v0v-1q-2 -9 -2 -22q-1 -2 -1 -4v0v-4zM97 339q78 38 94.5 47t118.5 -49v0l126 51q96 -50 118 -62q13 -7 -14 -15q-43 -13 -90 -9q-9 1 -54.5 2.5t-93.5 3.5t-98 5.5t-80 10t-27 15.5zM0 347
q5 3 15 10.5t14.5 10.5t13 7.5t14 5t13.5 -0.5t15 -6q23 -12 61 -25.5t56 -17.5q9 -1 48.5 21.5t62.5 21.5q24 0 78.5 -23.5t61.5 -22.5q5 2 29.5 20.5t51.5 34.5t42 13q13 -4 29.5 -22t32.5 -32t32 -11q13 4 62 30t95 46t61 14q20 -7 67 -35t67 -38q-3 -39 -7 -56
q-6 -32 -16 -63l-966 -26q-32 84 -33 144zM927 597q8 0 15 -2q7 5 18 5q10 0 17 -4q10 -22 18 -45q-2 0 -4 1q-4 -10 -19 -10q-9 0 -15 4q-6 -4 -15 -4q-8 0 -14 4q-6 -5 -15 -5t-15 4h-5q-10 0 -17 4.5t-7 11.5t7 12t17 5h2q2 8 11 13.5t21 5.5zM662 730q14 0 26 -4
q14 9 33 9q16 0 29 -7t16 -17q18 -4 24 -15h4q15 0 26 -7.5t11 -18t-11 -18t-26 -7.5q-9 0 -17 4q-8 -19 -36 -19q-15 0 -26 8q-11 -8 -26 -8t-25 7q-11 -8 -28 -8q-15 0 -25 7h-10q-18 0 -31 8.5t-13 21t13 21t31 8.5h4q2 15 18.5 25t38.5 10zM256 548q8 0 15 -2q7 5 18 5
q21 0 25 -14q10 -2 14 -8h2q8 0 14.5 -4t6.5 -10t-6.5 -10t-14.5 -4q-5 0 -10 1q-4 -10 -20 -10q-8 0 -14 4q-6 -4 -15 -4q-8 0 -14 4q-6 -4 -15 -4t-15 4q-2 -1 -5 -1q-10 0 -17.5 5t-7.5 12t7.5 12t17.5 5h2q2 8 11 13.5t21 5.5zM552 757l21 1q4 -1 14 -5.5t16 -5.5
q9 0 9 4q-7 -1 -9 5q-2 5 17 18q16 11 12 21q-2 -3 -12 -8q-4 -2 -8 -5.5t-8.5 -8.5t-7.5 -7q-8 -7 -15 -6q-21 5 -29 -3zM10 285q93 -12 219.5 -14t251 -8t241.5 -30q41 -8 91.5 3t107 28.5t93.5 20.5q0 4 1 7l1 6q-37 -2 -93.5 -20t-107.5 -29t-92 -3q-118 24 -243 30
t-251.5 8t-221.5 14v-1v0q1 -6 3 -12zM338 669h21q4 -1 14 -5.5t16 -4.5q9 0 8 3q-7 -1 -8 5q-2 6 17 19q16 11 11 21q-2 -3 -11 -8q-4 -2 -8.5 -6t-9 -8.5l-6.5 -6.5q-8 -7 -15 -6q-22 4 -29 -3zM707 552h21q4 -1 14 -5.5t16 -4.5q9 0 8 3q-7 -1 -8 5q-2 6 17 19
q16 11 11 21q-2 -3 -11 -8q-4 -2 -8 -6t-9 -8.5t-7 -6.5q-8 -7 -15 -6q-22 4 -29 -3zM755 245l2 7v0l11 -3l12 -2q-3 2 -6 6l20 -5v6v4v1v0v0v1v0v0v1v0v1v0v1v0v1v0v0v1v0v0v1v0v1h-1v1v0v0v1v0v1v0v0v1v0v0v1v1v0v0l-1 1v0v1v0v0v1v0v0v1v0v1v1v0h-1v1v0v0v1v0v1v0v0v1h-1
v1v0v1v0v0v1v0v0l-1 1v0v0v1v0v1v0v1v0h-1v1v0v0v1v0v1v0h-1v1v0v0v1v0v0l-1 1q-4 14 -13 29q1 -16 -3 -30v0v0v0v0v0q-1 -2 -1 -4v0v0q-3 -6 -6 -11v0v0v0v0v0l17 77l-4 1q-15 -11 -26 -20h-1v-1v0h-1v0v0v-1h-1v0v0v-1h-1v0v-1h-1v0v0v0l-1 -1v0v0v0l-1 -1v0v0v0l-1 -1v0
v0h-1v-1v0h-1v0v-1v0h-1v0v-1v0h-1v0v-1v0h-1v0v-1v0h-1v-1h-1v-1v0h-1v0v0v-1h-1v0v0v-1h-1v0v-1v0h-1v0v-1h-1v0v0v-1v0h-1v-1v0v0q-6 -6 -10 -12h-1v-1v0v0v0v0v-1h-1v0v0v0v-1v0v0h-1v-1v0v0v0v0v0l-1 -1v0v0v0v0v-1v0h-1v0v-1v0v0v0v0l-1 -1v0v0v0v-1v0v0h-1v0v-1v0v0
v-1h-1v0v0v-1v0v0v0h-1v-1v0v0v0v-1v0v0h-1v0v-1v0v0v-1v0h-1q-6 -12 -10 -25l40 -9l15 -3l-2 -7l-55 12v0v0v0v0v0v0v0v-1v0v0v0v0v0v0v0v0v0v0v0v0v0h1v0v0v0v0v-1v0v0v0v0v0v0v0v0v0v0v0v0v0v0v0v0v-1v0v0v0v0v0v0v0v0v0v0v0v0v0v0v0v0v0v0v-1v0v0v0v0v0v0v0h1v0v0v0v0v0
v0v-1v0v0v0v0v0v0v0v0v0v0v-1v0v0v0v0v0v0v0v0v0h1v-1v0v0v0v0v0v0v0v0v0v-1v0v0v0v0v0v0v0v0v0v0v0h1v-1v0v0v0v0v0v0v0v0v0v0v0v0v-1v0v0v0v0v0v0v0v0v0v0h1v0v0v-1v0v0v0v0v0v0v0v0v0v0v0v-1v0v0v0v0v0h1v0v0v0v0v0v-1v0v0v0v0v0v0v0v0v0v0v0v0h1v-1v0v0v0v0v0v0v0v0v0v0
v0v0v0v-1v0v0v0v0h1v0v0v0v0v0v0v0v0v-1v0v0v0v0h1v0v0v0v0v0v0v-1v0v0v0v0v0v0v0v0h1v0v0v-1v0v0v0v0v0v0v0v0v0h1v0v0v0v-1v0v0v0v0v0v0v0v0v0v0h1v0v0v0v-1v0v0v0h1v0q5 -5 12 -8v0v0l1 -1h-1h1q11 -5 26 -7l5 -16l10 -3l4 16v0v1h1v0h1h1h2h1v0h3h1v0v0v0v0h1v1v0h1v0h1
v0v0v0v0v0h1v0v0v0v0h1v0v0v0v0v0h1v0v0v0v0v0v0h1v0v0v0v0h1v0v0v0v0v0h1v0v0v0v0v0h1v0v0v0v0v0h1v0v0v0v0v0h1v0v0v0v0v0h1v0v0v0v0v0h1v0v0v0v0v0h1v0v0v0v0v0h1v0v0v0v0h1v0v0v1v0v0h1v0v0v0v0v0h1v0v0v0v0v0h1v0v0v0v0v0h1v0v0v0v0v0h1v0v0v0v0v0v0v0h1v0v0v0v0v0v0v0
v0h1v0v0v0v0v0v0v0v0v-14h3l4 15v2l1 5l1 3zM761 292v0l15 66q-9 -17 -13 -35v0v0v-1v0v-1v-1v0v0v-1h-1v-1v0v-1v0v0v-1v0v-1v0v-1v0v-1v0v-1v0v-1v0h-1v-1v0v-1v0v-1v0v0v-1v0v-1v0v-1v0v0v-1v0v-1v0v-1v0v0v-2v0v-1v0v-1v0v-1v0v0v-1v0v-1v0v0v0v-1v0v-1v0v0v-1zM721 229
v0v0v0v0zM1016 298q0 -2 -1 -5zM1014 285q-33 -165 -159 -280t-295 -131h-7l-4 -1h-10h-3q-4 -1 -11 -1h-1h-12v0h-4h-9h-2.5h-4.5q-1 0 -2.5 0.5t-2.5 0.5h-8h-4q-1 0 -9 1h-2q-170 16 -296 130.5t-158 280.5q93 -12 219.5 -14t251 -8t241.5 -30q41 -8 91.5 3t107 28.5
t93.5 20.5zM990 202q-51 -135 -167.5 -224.5t-262.5 -103.5h-7l-4 -1h-10h-3q-4 -1 -11 -1h-1h-12v0h-4h-9h-2.5h-4.5q-1 0 -2.5 0.5t-2.5 0.5h-8h-4q-1 0 -9 1h-2q-147 14 -263 103.5t-168 224.5q37 0 109 11.5t128 11.5t99 -23q68 -22 152 -24.5t153 7.5t158.5 17t157.5 0
zM890 40q-63 -70 -148.5 -113.5t-181.5 -52.5h-7l-4 -1h-10h-3q-4 -1 -11 -1h-1h-12v0h-4h-9h-2.5h-4.5q-1 0 -2.5 0.5t-2.5 0.5h-8h-4q-1 0 -9 1h-2q-97 9 -182.5 52.5t-148.5 113.5q74 15 155.5 16.5t148.5 -6t146.5 -14.5t149 -8.5t157.5 12.5zM278.5 121
q127.5 0 127.5 -3.5t-127.5 -3.5t-127.5 3.5t127.5 3.5zM808 -33q8 5 16 12q-131 -1 -131 -6t115 -6zM970 157l8 16q-73 -2 -73 -8t65 -8zM437 27q36 0 61 -1t25 -3q0 -5 -86 -5q-36 0 -61 1.5t-25 3.5q0 4 86 4zM720 68q77 0 77 -3.5t-77 -3.5t-77 3.5t77 3.5zM439.5 -34
q156.5 0 156.5 -6.5t-156.5 -6.5t-156.5 6.5t156.5 6.5zM667.5 127q200.5 0 200.5 -6t-200.5 -6t-200.5 6t200.5 6zM611 229q105 0 105 -3.5t-105 -3.5t-105 3.5t105 3.5zM235.5 247q122.5 0 122.5 -2.5t-122.5 -2.5t-122.5 2.5t122.5 2.5z" />
    <glyph glyph-name="sea_bottom__easyiconnet" unicode="&#xe631;" 
d="M512 896q103 0 197.5 -40t162.5 -108.5t108 -162.5t40 -197t-40 -197.5t-108 -162.5t-162.5 -108t-197.5 -40t-197.5 40t-162.5 108t-108 162.5t-40 197.5t40 197t108 162.5t162.5 108.5t197.5 40zM798 253q113 0 188 -68q-46 -108 -135.5 -186t-204.5 -109
q-46 28 -73.5 70.5t-27.5 90.5q0 84 74 143t179 59zM512 39q74 0 135 -31.5t92 -82.5q-98 -50 -212 -53l27 2l-5 -1h-2.5h-3.5h-3h-4q-14 -1 -30 -1h18h-12v0h-5h-8h-3.5h-3.5t-2.5 0.5t-2.5 0.5q-13 0 -25 2l13 -2q-2 0 -9 1h-2q-114 11 -211 67q139 98 259 98v0zM127 214
q104 0 178 -59t74 -143q0 -60 -41 -110q-105 37 -185.5 115t-121.5 182q46 15 96 15zM188 244q9 6 11 12q1 4 -1 15t-2 15q-2 -4 -5 -7q-1 -2 -4.5 -6t-5 -8t-0.5 -9q1 -3 7 -12zM87 192q-3 9 -11.5 11.5t-10.5 12.5q-1 5 2.5 19t-0.5 18q-2 3 -14.5 12.5t-13.5 15.5
q0 8 7.5 22.5t8.5 18.5q2 8 -2 23.5t-5 18.5q-1 11 4 15.5t19 13t27 24.5q7 9 12 8q3 -1 4 -2.5t0.5 -4t-1.5 -4.5t-2.5 -5.5t-2.5 -5.5q-1 -10 -1.5 -12t1 -11.5t2.5 -12.5q1 -8 -6.5 -13t-10.5 -13q-2 -10 -2 -13t4 -9.5t5 -10.5q2 -6 -2.5 -15.5t-4.5 -14.5
q1 -9 11.5 -16t12.5 -10q3 -6 -0.5 -18t-3.5 -14q0 -7 3 -12.5t5.5 -8t10.5 -7.5q2 -2 4 -5q8 9 7 16q-1 6 -9.5 18t-8.5 21t6.5 18t6.5 15q0 4 -4.5 16.5t0.5 21.5q4 10 9.5 15.5t5.5 9.5q1 2 0 14t0.5 25t6.5 22q14 24 30 30q7 2 7 -7q0 -2 -1 -3q-5 -31 10 -45
q7 -9 4.5 -18t-11.5 -16q-8 -7 -10.5 -16t3.5 -14q10 -10 9 -19q1 1 1 2q4 5 18.5 10.5t18.5 7.5q6 4 13 17.5t9 15.5q6 8 13 8t18.5 -3.5t34.5 -0.5q11 2 14 -2q1 -3 1 -4t-2 -2.5t-4 -2.5t-5.5 -2.5t-4.5 -2.5q-5 -2 -8.5 -6t-8 -10.5t-5.5 -8.5q-5 -6 -11.5 -5t-17.5 -2
q-6 -3 -8.5 -7t-4 -10t-3.5 -10q-2 -5 -11 -8.5t-12 -7.5q-6 -4 -3 -16.5t2 -16.5q-1 -5 -11 -11t-12 -8q-9 -9 -6 -31q3 -15 -14 -34q-11 -12 -17 -4q-12 14 -16 31q7 -30 -4 -30q-7 -1 -13 1h-2h-1q-17 2 -27.5 9.5t-13 14t-4.5 17.5t-3 13zM130 150q-2 1 -4 4
q-1 1 -2.5 3t-2.5 3t-5 7q-36 49 -46 110l7 -31q-1 4 -3 10q-5 21 -7 44q-2 24 1 47q2 18 10 33l7 13q-1 -2 -2 -6q-4 -10 -5 -18q-3 -12 -3 -26v-9l1 -8v-2.5v-2v-2v-2.5q1 -4 1 -9q2 -20 6 -39q5 -19 12 -40q11 -37 35 -79zM150 142q1 32 4 79v9q1 9 1 10q0 2 1 9v5.5v4.5
v10.5v10.5v21.5t1 23.5l1 11q0 1 1 6q0 4 1 6v2.5t0.5 3.5t1 3t0.5 3t3 11q1 2 2 6l2 6l1 1v1l4 9q-1 -3 -2 -7v-1t-1 -2v-4q0 -1 -1 -5q0 -1 -1 -2v-2v-1q-1 -11 -1 -13l-0.5 -2.5t-0.5 -4v-4t-1 -3.5v-34l1 -19v-10t0.5 -5.5t0.5 -4.5v-6v-2.5v-2.5l-0.5 -4.5t-0.5 -6.5
l-1 -11q0 -1 -1 -10q-6 -48 -15 -85zM172 154v5q0 1 1 6l1 8q3 25 12 49q0 1 3 8q0 1 0.5 2t1.5 2q4 9 11 17l-7 -8q0 1 1 3v0q1 1 2 4l3 4l2 4l1 1.5t1 2.5q5 7 6 7q1 2 3 4.5t3 3.5q0 1 3 4l3 4q14 16 31 27q1 1 4 3t5 3q76 42 166 56h-1l-1 -1h-1h-1l-2 -1h-1h-1l-1 -1
h-1h-1l-1 -1h-1h-1l-1 -1h-2h-1l-1 -1h-1h-1l-1 -1h-1h-1h-1l-1 -1h-1h-1l-1 -1h-1h-1l-1 -1h-1h-1l-1 -1h-1h-2l-74 -24q1 0 5 1q6 0 9 1q10 1 -3 -2q-42 -11 -41 -11q-1 -1 -6 -4q-1 -1 -7 -5q0 -1 -3.5 -3.5t-5.5 -3.5q-1 -1 -2.5 -2t-1.5 -2l-3 -2l-1 -1l-1 -1
q-3 -2 -6 -5l-0.5 -0.5l-0.5 -0.5l-1 -1l-3 -3l-1 -1l-1 -1q-2 -3 -3 -3q-2 -3 -5 -6q-12 -15 -19 -28q-11 -17 -18 -32q-1 -1 -4 -8q-3 -8 -3 -9q-157 -363 -200 -780l193 763v0q-29 -76 -35 -162zM693 142q-4 16 -2 24q6 36 -5 67q1 2 2.5 5.5t4 11.5t-2.5 10q-7 6 -9 -8
l-1 -7q-2 2 -3.5 5.5t-4.5 11t-2 10.5q2 2 4 3.5t4.5 6t1.5 6.5q-1 3 -3.5 2.5t-4.5 -2.5l-2 -2q1 11 4 16q8 8 0 13q-3 3 -9 -5t-8 -19q-2 -8 -1 -16.5t3 -15.5l2 -6l-2.5 2.5t-5 4t-6.5 1.5q-3 -2 0 -6.5t9 -9.5l7.5 -5t7.5 -6t5 -8q14 -32 9 -49q-3 -10 -1 -28t6 -21
q5 -3 7 -2q1 -3 3 -4t2 2q3 0 5 2.5t2 6.5q-1 6 5.5 15.5t13.5 12.5q26 12 33 22l12 11q5 -2 9.5 -0.5t7 4.5t5 6.5l2.5 3.5q11 11 7 13q-6 4 -14 -8q-2 -3 -6 -5.5t-6 -3.5l-3 -1q2 3 3.5 12t1.5 17v7q5 1 9 5q3 2 7.5 9.5t3.5 10.5q-1 1 -3.5 1t-4.5 -1l-3 -1q-2 7 -3 9
q0 1 1 7q3 12 1 13t-4 -2q-5 -5 -4.5 -12t3.5 -13l3 -7l-9 -8q-1 1 -3 7t-4.5 11.5t-3.5 5.5q-8 -3 0 -25q3 -7 3 -13.5t-2 -9.5l-1 -3l-2.5 5t-5 11t-6 9t-5.5 -1q-3 -6 2 -13.5t11 -12.5l6 -5q-4 -12 -10.5 -20t-11.5 -10l-5 -2q3 7 0 14.5t-9 4.5q-3 -2 -3.5 -7.5
t1 -11.5t0.5 -7q0 -1 -3 -4t-8 -7.5t-8 -8.5q-5 -6 -8 -15q-6 52 -17 99q9 -47 18 -48q2 0 12 12q1 2 2 3q4 3 12.5 7t15 7t6.5 6t-5.5 4.5t-13.5 -0.5t-15 -9q8 19 16 26q16 14 21 28q4 12 15 14q9 3 7 10q0 2 -4.5 2t-8.5 -1l-5 -1q6 22 19 31q26 19 28 35q1 8 -4.5 10
t-8.5 -4q-1 -2 -3 -8.5t-4.5 -11.5t-8.5 -8q-7 -5 -12.5 -14.5t-7.5 -14.5q-2 22 6 34q1 3 6 9.5t8.5 12t7.5 12t5.5 11t0.5 6.5q-2 3 -8 -1.5t-12.5 -13.5t-11.5 -19q-13 -30 -13 -63t-18 -53q4 14 0 26q1 2 2.5 5.5t4.5 13t-1 12.5q-6 7 -13 -13q0 18 4 30q3 8 -3.5 10.5
t-11.5 -4.5q-3 -5 -4.5 -10.5t-1.5 -9.5l1 -3l-11 12q-4 2 -6 1q-4 -4 1.5 -14t15.5 -12q6 -16 10 -19q4 -2 5 -12.5t-2 -18.5l-10 9q-1 0 0.5 -6t3.5 -12l2 -6q-13 -31 -15 -43q-4 -38 -4 -45v0zM934 194q-10 26 -45 34q-65 16 -69 78q1 -1 0 -9t1.5 -21.5t6.5 -27
t14.5 -25.5t25.5 -16q55 -16 59 -40l-6 -12q2 1 4.5 3.5t10 9.5t13.5 14.5t12.5 18.5t10 21.5t3.5 22t-6 22.5q-7 13 -17.5 25l-17.5 20t-12.5 18.5t-4 26.5t10.5 39q-3 -2 -6.5 -6t-11.5 -17t-11.5 -26.5t-1 -33t14.5 -37.5q27 -40 22 -82zM961 223l13.5 13.5t24 30
t18.5 39.5q2 -6 3 -14.5t-4 -32t-20 -41.5t-32 -32.5t-29.5 -22t-13.5 -8.5l4 9q6 23 -7 44.5t-44 50t-39 38.5q-11 12 -12 28t5.5 30.5t14 27t13.5 19.5l7 8q-15 -35 -4.5 -63.5t28.5 -44.5t37.5 -34t21.5 -31q4 -20 -4 -42q10 16 19 28zM449 -30q-7 27 -4 41q4 13 2.5 51
t-11.5 66q1 2 2.5 4t4.5 8.5t4.5 12.5t0.5 12t-5 10q-6 4 -9.5 2t-5 -10.5t-2 -13t-0.5 -5.5q-2 4 -5.5 10t-8 19.5t-3.5 18.5q3 2 6.5 5.5t8.5 10.5t3 12q-3 4 -7 3t-7 -4l-4 -4q1 20 8 28q12 15 0 24q-7 4 -17 -9.5t-14 -33.5q-2 -13 -0.5 -28t4.5 -27l3 -11q-2 2 -4 5
t-8.5 7.5t-10.5 2.5q-6 -5 -1.5 -12.5t16.5 -16.5q4 -3 12 -8t13.5 -10t9.5 -15q23 -56 15 -85q-5 -16 -1.5 -48t9.5 -36q9 -7 12 -4q3 -5 7 -7q3 -2 3 4q4 -1 8 3.5t3 10.5q-1 11 10.5 27.5t24.5 22.5q14 6 32.5 18t23.5 20q3 5 8.5 9.5t8.5 6.5l3 2q10 -3 18 0t12 8t8 11
t5 7q19 18 11 23q-9 5 -24 -14q-3 -6 -9.5 -10t-11.5 -6l-4 -2q7 10 7 63q9 2 16 7q6 5 14 18t7 17q-2 3 -6.5 3t-9.5 -2l-4 -1q-4 11 -5 15q-1 2 1 12q6 22 1 23q-2 0 -6 -3q-9 -9 -8 -21.5t6 -23.5l6 -11q-4 -2 -8 -5.5t-6 -6.5l-2 -2q-2 1 -5.5 11.5t-7.5 20.5t-6 9
q-14 -5 0 -43q4 -13 4 -24.5t-2 -16.5l-2 -5q-2 4 -4 9.5t-8.5 19t-11 15.5t-9.5 -2q-4 -10 4 -23.5t18 -21.5l11 -9q-7 -20 -18.5 -34t-19.5 -18l-8 -3q4 12 -1.5 25t-15.5 8q-6 -3 -6 -13t2 -20t2 -12q-1 -3 -6 -7.5t-13.5 -12.5t-15.5 -15q-8 -10 -12 -26q-8 68 -24 131
q4 -22 9 -34t8.5 -14.5t8 1t8 9t8 12.5t8.5 10q6 5 21 11.5t25.5 12t10.5 10.5t-9 8t-23.5 -1t-24.5 -16q12 34 26 46q29 23 37 49q4 12 9.5 17t16.5 7q17 5 13 17q0 3 -8 3t-16 -2l-7 -1q10 38 32 54q46 33 49 60q2 14 -7.5 18t-15.5 -7q-2 -4 -5 -15t-8 -19.5t-14 -14.5
q-13 -8 -23 -24.5t-11 -25.5q-5 39 9 60q3 4 11 16t14.5 21.5t13 20.5t9.5 19t1 11q-4 5 -14 -2.5t-22 -23.5t-19 -33q-23 -52 -23 -110q0 -28 -6 -48.5t-26 -43.5q8 24 0 44q0 2 1.5 4.5t5 10.5t5 14t2 14.5t-3.5 10.5q-5 6 -10 1t-8 -14l-3 -8q-1 32 7 51q5 15 -6.5 19
t-20.5 -9q-5 -7 -7.5 -17t-2.5 -16l1 -7l-5.5 7.5t-13 13t-10.5 2.5q-7 -6 2.5 -23t26.5 -22v0q11 -27 18 -32q6 -5 8.5 -23t-2.5 -32q-1 1 -1.5 2t-3 4t-4.5 5.5t-4.5 4t-4.5 1.5q-3 -1 -0.5 -11.5t6.5 -20.5l4 -10q-23 -55 -26 -75q0 -2 -1.5 -13t-2.5 -20t-2 -22t-1 -23
v0zM339 92q1 1 1.5 2.5t1.5 6t-1 5.5q-9 5 -9 6q0 2 3 3q5 2 33 -4q13 -3 25 2q1 0 3 -1t6.5 -1.5t7.5 -0.5q3 1 9 -1.5t9.5 -4t5.5 0.5q2 4 -2.5 7.5t-10.5 4.5l-16 3q17 6 19 15q1 5 -1 8t-4 4l-2 1q2 11 -8 13q-4 1 -5 -2.5t0 -6.5l1 -4q-5 -5 -7 -9q-4 -9 -10 -8
q2 13 -3 14q-2 0 -5 -4.5t-4 -9.5l-2 -5q-6 4 -8 8l1 8q1 1 2.5 2t3.5 3.5t1 4.5q-2 1 -4.5 0.5t-5.5 -2.5l-2 -1q-5 5 -11 7q-8 2 -6 7q0 1 3.5 1.5t13 -1.5t12.5 -1q10 1 9 4q0 2 -2 3q1 1 2 2.5l3 4.5t-0.5 4t-4 0.5t-4.5 -3t-4 -2.5q-2 -1 -10 0t-9 3q-1 3 1.5 6.5
t6.5 3.5q1 0 9.5 -1t14 -1t7.5 2q4 4 -4 5q-4 1 -8 1l-12 2q16 4 18 12q0 3 -1 6.5t-3 5.5l-1 1q-1 9 4 11q15 6 15 10q-1 2 -3 0.5t-5.5 -3.5t-5.5 0l-2.5 2.5t-2.5 2t-3 0.5q-3 -1 -6 -8t-3 -13q-8 -3 -13 -6q-2 -1 -4 -3.5t-2.5 -2.5h-2.5q0 1 1 12t-3 12t-7.5 -5.5
t-1.5 -12.5q5 -15 4 -15q-3 -2 -7 -16q-1 -6 -4.5 -11.5t-5.5 -3.5q-2 1 -2.5 7t-1.5 7q-1 2 5.5 10t4.5 13q-3 4 -5.5 1t-5.5 -7.5t-4 -3.5q-2 2 -4 9t-4 8q-3 3 4 10q11 11 5 15q-2 2 -5 -1t-5.5 -6t-3.5 -2t-3 7.5t-1 8.5q1 1 7 6.5t11.5 12.5t4.5 11q-1 8 -7.5 7.5
t-8.5 -3.5l-7 11q-3 0 -6 -7t1 -10q11 -6 7 -12l-6 -4q-2 9 -10 11q-6 2 -11 -4.5t-3 -11.5l-14 1q-2 -3 2.5 -9t12.5 -7q-1 -11 7 -15q-12 4 -15 -2q-1 -2 4.5 -4t11.5 -3h5q4 -11 11 -16q3 -3 5 -6t2 -5t-3 -3t-14 -0.5t-12 2.5t0 7.5t0.5 11t-4.5 7.5q-6 2 -9 -3t-4 -11
q-6 -2 -13 6q-4 4 -4 12t-1 9q-2 2 -5 -0.5t-4.5 -6t-0.5 -8.5q-1 0 -2.5 -1t-4 -4t-1.5 -6q1 -6 8 -13.5t11 -9.5q0 -1 -0.5 -1.5t-2.5 -1.5t-4 -1q-5 0 -12 -2t-5 -6q1 -3 4.5 -4t6.5 -1h3l2 -2t4.5 -2t5.5 2q3 2 7 9t8 8q14 3 21 -3q-1 -1 -6 -6.5t-6.5 -8.5t1.5 -5
q4 -2 14 4.5t14 5.5q6 -2 9.5 -8t1.5 -10t-4 -4t-6 5t-6 -4q-1 -5 1 -8q4 -3 4.5 -7.5t-3.5 -6.5q-7 -3 -8 8l-4 9q1 1 1.5 2.5l1.5 4.5t-2 4q-2 1 -4.5 -1.5t-3.5 -4.5l-1 -3q-3 4 -7 0q-1 -2 5 -14.5t4.5 -14.5t3.5 -6.5t14.5 -8.5t17.5 -5q4 -1 9 -2.5t7.5 -2t5.5 -0.5
t5 2t3 6zM409 137v3q-1 1 -2.5 1t-2.5 -1v-1t-1 -1q-1 -3 2 -4q1 0 2 1q2 0 2 2zM283 266q-1 1 -2.5 1t-2.5 -1v-1l-0.5 -0.5t-0.5 -1.5t1 -2v0v0v0v0h2t1 1v0l0.5 0.5l0.5 0.5v0v0v0q3 1 1 3zM263 254.5q-2 0.5 -2.5 -1.5t1 -2.5t2.5 1.5t-1 2.5zM383 128v0q-2 2 -3 0t2 -3
v0v0q2 0 2 2q0 1 -1 1v0zM384 138h-1q-2 0 -2 -1v-1t1 -2h1t2 1v1q0 1 -1 2v0zM302.5 274q-0.5 0 -1 -0.5t0.5 -1t1 0.5t-0.5 1zM315 279q-1 3 -3 1q-2 0 -3 -1t-1 -3t2 -2h1t3 1q1 1 1 4zM300 287q-1 0 -1 1q-2 0 -3 -2q-1 -1 0 -2q0 -2 2 -2q1 0 1 1h1v0q2 2 0 4zM343 221
l-1 -2zM344 230q-1 1 -2 -1t1 -3q1 0 2 1q1 2 -1 3zM346.5 191q0.5 2 0.5 3v0v0v0q0 1 -1 2t-2 1t-2 -1h-1q-1 0 -1 -2v-2t1 -3q1 -1 3 -1q2 1 2.5 3zM261 185v3v0v1q2 1 1 2q-3 3 -6 0q-1 -2 -1 -4v0v0q0 -2 1 -2l1 -1t2.5 -0.5t1.5 1.5zM284 169.5q-2 0.5 -3 -1.5t1 -2.5
t3 1.5t-1 2.5zM277 164v1q-2 0 -3 -2t1 -3v0v0q3 -1 4 1.5t-2 2.5zM225 170q-3 1 -4 -1q0 -2 2 -3t3 1q0 2 -1 3zM274 133v1v0q0 2 -1.5 2.5t-2.5 -0.5v0v-1v0q-1 -2 1 -3t3 1v0zM351 126v1v2q-1 1 -2 1v0h-1q-1 0 -2 -2v0v0v-1v-2q1 0 1.5 -0.5t1.5 -0.5l2 2v0v0zM334 166
h-2q0 1 -1 0v0v-1q0 -2 1 -2h1zM333 163v0v0zM333 163v0q1 0 1.5 1t-0.5 2zM333 163zM309 127q1 2 1 3q-1 1 -3 2q-1 0 -2 -1v-2v-1v0v0q0 -1 1 -2h0.5h0.5q2 0 2 1v0zM338 151q-1 1 -1.5 -0.5t0.5 -1.5t1 2zM330 140v0v1l-1 1v0v0h-1h-1q-1 -1 -1 -2v0h-1q0 -1 1 -1v0v-1
q1 -2 3 -1t1 3zM356 137h-2q-1 -1 -1 -3l1 -1q2 -2 3.5 1t-1.5 3zM351 143q0 3 -1 4q0 1 -3 2t-4 -1q-1 -4 1 -5q1 -2 3 -2q4 -2 4 2zM314 165l-1 1q0 2 -2 1q-1 0 -1 -1q-1 -2 1 -3t3 2zM311 180v0q-1 2 -3 1t-1 -3t3 -2q1 0 1 1q2 2 0 3zM301 173q1 1 -1 2q0 1 -1 1h-1v0
v0v0v0q-2 1 -3 -0.5t0 -3.5l3 -3q2 0 3 1.5t0 2.5zM266 204q-2 0 -3 -1q-1 -2 1 -3q2 0 2 1q2 2 0 3zM246 188q1 1 0 2q0 2 -2 3q-1 0 -2 -1q-2 -1 -2 -3q-1 -2 2 -2l1.5 -0.5t1.5 0.5q1 0 1 1zM234 209q-2 0 -2.5 -1t0.5 -2q2 1 2 3zM231 196q1 0 1 1t-1 2q0 1 -1 1
q-1 2 -3 0.5t-2 -4.5q1 0 2 -2h2q2 -1 2 2zM365 216q-2 1 -3 -2q-1 -2 1 -3q3 -1 3 2q1 2 -1 3zM380 212v0v0v0v0q1 2 -1 2.5t-3 -0.5v0q-2 -1 -2 -3t3 -3q2 -1 3 1v0q1 0 1.5 1.5t-1.5 1.5zM358 205q-2 0 -2 -1q-1 -2 1 -3q1 -1 2 1t-1 3zM283 245v1v1q1 2 0 4q0 1 -2 1.5
t-2 -1.5q-3 -3 -2 -4q0 -3 3 -4t3 2zM293 241v1q1 2 -0.5 2.5t-2.5 -0.5l-1 -1v-2v0q1 -2 3 -1v0q1 0 1 2v-1zM287 227v2v0v0v0l-1 1q-1 2 -3 2h-1q-2 -1 -1 -4v-1h1v0v-1q1 -2 3 -1q1 0 2 2zM262 4q59 28 101.5 14.5t42.5 -61.5q0 -32 -20 -69q-97 24 -178 83q26 20 54 33z
M410 488q6 3 6 8q0 2 -3.5 4t-9.5 7t-10 13q-4 6 -6 26.5t-9 41t-22 31.5q-19 15 -39.5 22.5t-46.5 3.5t-46 -24q-14 -13 -25.5 -26.5t-16 -18.5t-10.5 -7.5t-15 -1.5q-11 2 -17 17.5t-8 30.5t-3 16q-7 3 -14 -12.5t-7 -27.5q0 -4 2.5 -17.5t2.5 -24.5t-5 -17q-4 -5 -10 -10
t-9.5 -8.5t-2.5 -7.5q1 -5 11 -5.5t19 5.5q4 3 13.5 12t18 14t14.5 4q5 -1 12 -16.5t23 -36t41 -31.5q76 -33 116 2q9 9 16 13t15.5 6t9.5 3q7 2 9.5 3.5t4.5 3.5t1 5zM170 567q-5 -1 -13 0q-6 1 -10 6v-41q9 5 15 4q4 -1 8 -8v39zM351 608q-1 0 -4 -1q-15 -3 -28 -11
q-15 -12 -16 -13l-8 -8q-5 -8 -10 -15q2 2 3 4v0q-2 -3 -4 -7q-8 -12 -13 -29q-7 -23 -8 -50l1 -19q0 2 -1 5q0 4 -1 13q-1 23 5 46q4 15 10 29q8 15 18 27q12 13 26 20q15 8 33 10q-2 -1 1 0h7zM220 609l-1 -2l-4 -6q-18 -25 -23 -55q3 11 3 14v-1q-2 -5 -3 -10
q-2 -9 -2 -19t2 -20q-1 1 -1 3l-1 3l-1 4q-2 13 0 26l1 4v4q1 1 3 9q3 9 6 16q8 17 21 30zM283 628q-1 -1 -3 -2q-1 0 -4 -2q-1 -1 -3 -2t-3 -1l-1.5 -1l-1.5 -1l-3.5 -2t-4.5 -3l-1.5 -1l-1.5 -1q-2 -1 -9 -7h-1l-1 -1q0 -1 -1 -1.5l-1 -0.5q-4 -4 -5 -4q0 -1 -1.5 -2.5
l-2.5 -2.5t-2 -2.5t-2 -2t-4 -5.5l-1 -1t-1 -1.5t-1 -1.5t-1 -2q-8 -13 -11 -26q-4 -15 -4 -31q0 -12 4 -32q-1 1 -1 4l-0.5 2t-1.5 3q-18 88 -50 166l48 -150l-1 5v2v3v3v2v6q0 3 1 6v1.5v0.5v1t0.5 2t0.5 1.5v3.5q1 1 1 2v1q2 6 2 7l3 6q0 2 2 4q1 2 1 3q7 13 17 23
l2.5 2.5l3.5 3.5l6 5q178 132 396 190l-384 -182v0q12 7 26 13zM318 620q-1 0 -4 -1q-1 0 -3 -1q-1 0 -2 -1l-3 -1q-2 -1 -3 -1q-18 -8 -33 -25q-19 -21 -27 -51q-5 -17 -5 -37q0 -3 1 -30q-1 6 -2 17q-1 7 -1 9v3v3v5q0 5 1 12q1 14 5 27q1 9 16 32q-1 -2 0 0q4 5 7 9
q16 19 40 29q-4 -2 -7 -4h-1q10 4 18 6l-9 -3q5 2 12 3zM381 520.5q0 -6.5 -4.5 -11.5t-10.5 -5t-10 5t-4 11.5t4 11.5t10 5t10.5 -5t4.5 -11.5zM380 520.5q0 -5.5 -4 -9.5t-10 -4v0q-5 0 -9 4t-4 10v0v0q0 5 4 9t9 4v0q6 0 10 -4t4 -9.5zM379 524q0 -6 -6.5 -6t-6.5 6v0
q0 6 7 6v0v0q6 0 6 -6zM399 494q6 -5 11 -6q-11 -5 -11 6zM317 507q-32 8 -47 -13q-13 -18 -20 -23.5t-19 -1.5q-13 4 -24.5 44.5t-1.5 55.5q9 16 31.5 16t51.5 -19q46 -31 50 -45q2 -6 -4.5 -10.5t-16.5 -3.5zM114 591q0 9 5 22t10 17v1q-7 3 -14 -12.5t-7 -27.5
q0 -4 2.5 -17.5t2.5 -24.5t-5 -17q-4 -5 -10 -10t-9.5 -8.5t-2.5 -7.5q1 -7 15 -5q-8 1 -9 5t2.5 7.5t9.5 8.5t10 10q5 11 5 18.5t-2.5 22t-2.5 18.5zM220 617q21 20 46.5 24t46 -3.5t40.5 -22.5q15 -11 21.5 -31.5t9 -41t5.5 -26.5q5 -8 11 -13t9.5 -7t3.5 -4t-1 -3
q4 3 4 7q0 2 -3.5 4t-9.5 7t-10 13q-4 6 -6 26.5t-9 41t-22 31.5q-19 15 -39.5 22.5t-46.5 3.5t-46 -24q-65 -64 -98 -148q78 116 123.5 161t91.5 66zM521 856q-3 2 -17 -12t-26 -29l-11 -15l-70 15q-13 1 -15 0q-2 -3 7.5 -21t21.5 -35l11 -17q-2 -1 -4.5 -3.5t-9.5 -9
t-12 -12t-8.5 -11.5t-1.5 -9q2 -5 21.5 -5t38.5 2l19 3q29 -57 46 -57q8 0 10 19.5t1 39.5l-2 20q72 17 72 29q0 5 -15.5 12.5t-31.5 11.5l-16 5q4 73 -8 79zM404 703q2 2 6 3q5 3 15 7q1 1 22 9q15 7 24 12q-2 -1 -5 -4q-1 -1 -2 -1q0 -1 -0.5 -1t-0.5 -1l-4 -2
q-2 -1 -9 -5q-19 -10 -46 -17zM406 796q9 -4 22 -11q25 -13 45 -28q-10 4 -24 11q-27 15 -43 28zM488 757q1 8 4 21q5 27 15 46q-1 -2 -2 -6q0 -2 -1.5 -7.5t-2.5 -9.5q-1 -6 -2 -10q-8 -30 -21 -56l11 25q-1 -2 -1 -3zM501 744h2h1h3q6 0 15 1l47 3q-2 0 -6 -1
q-9 -3 -16 -4q-13 -2 -23 -2q-15 0 -23 3zM488 730q1 -2 2 -5t3 -7q1 -3 1 -4l2 -4q1 -5 3 -10q0 -2 1 -6q0 -3 1 -6q2 -9 2 -25q-1 2 -1 6q-1 1 -2 7t-2 10q-8 27 -9 57l3 -36q0 3 -1 6l-1 6q-3 12 -3 26zM669 519q3 -3 7 -7.5t10 -16.5t5 -20q0 -1 -10 -29.5t-4 -42.5
q8 -15 17.5 -20t28.5 -9q-3 1 -8 4t-13.5 12.5t-8.5 19.5q1 10 8.5 30.5t5.5 34.5q-2 11 -7.5 23t-9.5 18l-5 6zM1001 551q-24 72 -66 132q16 -33 26 -55.5t15 -34t6 -18t0 -7.5t-3 -2q-25 -8 -55.5 -32.5t-53.5 -33.5q-32 -12 -70.5 5t-51.5 40q-11 20 -14 5q-2 -10 2 -15
q1 -2 4 -6t12 -14t19.5 -17t27.5 -13t36 -6q29 0 56 13.5t50 31t33 21.5q12 5 27 6zM968 628q-45 85 -115 147q28 -55 41.5 -94.5t13 -63.5t-9 -36.5t-26.5 -18.5q-23 -6 -38.5 -0.5t-23.5 15.5l-8 10l-23 -17q5 -5 14.5 -12.5t35 -16t46 -1t39 25.5t33 37.5t21.5 24.5v0z
M934 684q-56 80 -138 132q126 -171 73 -197q-20 -9 -33.5 -7t-18.5 11q-4 7 -12 1q-6 -5 -1 -8q1 -2 4 -4t11 -7t16.5 -7.5t19.5 -1.5t20 7q7 4 13.5 10.5t11 12.5t10.5 15.5t9 14t8.5 15t6.5 13.5zM698 521q3 -6 8 -15.5t24 -31.5t44 -35q23 -13 58 -13.5t71 4.5t46 4
q16 -1 29 -6t19 -9l5 -4q-20 29 -52 34q-12 1 -44.5 -3.5t-58 -6t-56.5 9.5q-23 11 -47 31.5t-26 36.5q-3 21 -20 4zM422 520v0q0 -9 9 -9t9 9v0v0q0 9 -9 9t-9 -9v0zM808 661q0 2 -1 5t-4 11.5t-7 16t-11.5 16t-17.5 12.5q-25 12 -72.5 -4.5t-66.5 -45.5q-14 -20 -18.5 -46
t6.5 -52t39 -38q-17 -15 0 -27q8 -7 21.5 0t17.5 6q3 -1 9.5 -4t11.5 -5t12 -1.5t12 4.5q8 7 11.5 22.5t9.5 19.5q5 3 20.5 5t24.5 10t9.5 24t2.5 19q1 2 15 9.5t16 22.5q2 11 -8 16t-21 5zM667 662q-12 2 -21 -19t-6.5 -43.5t19.5 -23.5q17 -2 25.5 18.5t3.5 43t-21 24.5z
M420 556v0q0 -5 4 -9t9.5 -4t9 4t3.5 9v0v0q0 6 -3.5 10t-9 4t-9.5 -4t-4 -10v0zM401 601v0q0 -7 5 -12.5t12.5 -5.5t13 5.5t5.5 12.5v0v0q0 8 -5.5 13t-13 5t-12.5 -5t-5 -13v0zM480 351v0q0 -7 5.5 -12.5t13 -5.5t12.5 5.5t5 12.5v0v0q0 8 -5 13t-12.5 5t-13 -5t-5.5 -13
v0zM521 431v0q0 -7 5.5 -12.5t13 -5.5t12.5 5.5t5 12.5v0v0q0 8 -5 13t-12.5 5t-13 -5t-5.5 -13v0zM343 385.5q0 -7.5 5 -13t12.5 -5.5t13 5.5t5.5 13t-5.5 12.5t-13 5t-12.5 -5t-5 -12.5zM315 714.5q0 -7.5 5 -13t12.5 -5.5t13 5.5t5.5 13t-5.5 12.5t-13 5t-12.5 -5
t-5 -12.5zM593 747v0q0 -8 5.5 -13.5t13 -5.5t12.5 5.5t5 13.5v0v0q0 7 -5 12.5t-12.5 5.5t-13 -5.5t-5.5 -12.5v0z" />
    <glyph glyph-name="night" unicode="&#xe63a;" 
d="M512 896q104 0 199 -40.5t163.5 -109t109 -163.5t40.5 -199t-40.5 -199t-109 -163.5t-163.5 -109t-199 -40.5t-199 40.5t-163.5 109t-109 163.5t-40.5 199t40.5 199t109 163.5t163.5 109t199 40.5zM148 373v-9q0 -21 5 -42v0q21 -121 111.5 -205t213.5 -95h1q5 -1 7 -1h3
h5h2h2t3 -0.5l2 -0.5h6h3v0h8h2q3 1 7 1h2h7l3 1h5q122 11 212 94t112 203q3 12 5 39v0v0v0v4v2v0v1q5 51 -10 106l-1 2q-30 119 -128 197t-224 78q-130 0 -229.5 -81.5t-126.5 -205.5v0v0v-2l-1 -2v-2q-6 -23 -7 -60v-11v-1v-10zM301 378v-6q0 -12 3 -24v0
q12 -70 64.5 -118.5t123.5 -55.5h1h4h2h3h1h1h3h3q1 -1 2 -1v0q2 0 5 1h1h4h1h4h2h3q70 7 122 55t65 117q2 7 3 23v0v3v1q3 29 -6 61v1q-17 70 -74 115t-130 45q-75 0 -132.5 -47.5t-73.5 -118.5v0v-1v-1l-1 -1v-1q-3 -13 -4 -35v-6v0v-6zM21 366l22.5 20t46.5 34t56 25
t63 -14t80.5 -36.5t57.5 -21.5q14 -1 45 18t61.5 42t62.5 38t48 7q9 -4 61 -30t94 -44t70 -23q21 -3 51.5 13.5t56 39.5t53 45.5t41.5 27.5q9 2 17 4q16 -62 16 -127q0 -24 -2 -49q-71 -13 -162.5 -27.5t-202 -29t-207.5 -23t-177.5 -7.5t-113.5 14q-103 42 -135 98zM1 359
q16 12 40 20.5t55 8t54 -15.5q33 -22 46 -26.5t34 1.5q64 41 113 48.5t82 -10t66 -58.5q30 -25 81 -36q33 17 151 77q48 24 94 32.5t76 5.5t68 -7t63 -2v-13q0 -68 -18 -134h-988q-15 54 -17 109zM18 250h988q-45 -165 -182 -271.5t-312 -106.5t-312 106.5t-182 271.5z
M395 667q39 0 67 -27.5t28 -67t-28 -67t-67 -27.5t-67 27.5t-28 67t28 67t67 27.5zM167 714q9 0 9 -8.5t-8.5 -8.5t-8.5 8v0v0q0 9 8 9v0zM921 508v0q8 0 8 -9v0q0 -8 -8.5 -8t-8.5 8.5t9 8.5v0zM103.5 556q8.5 0 8.5 -8.5t-8.5 -8.5t-8.5 8.5t8.5 8.5zM843.5 724
q8.5 0 8.5 -9v0q0 -8 -8.5 -8t-8.5 8.5t8.5 8.5zM826.5 568q8.5 0 8.5 -8.5t-8.5 -8.5t-8.5 8.5t8.5 8.5zM656.5 849q8.5 0 8.5 -8.5t-8.5 -8.5t-8.5 8.5t8.5 8.5zM377.5 853q8.5 0 8.5 -8.5t-8.5 -8.5t-8.5 8.5t8.5 8.5zM205.5 568q8.5 0 8.5 -8.5t-8 -8.5v0q-9 0 -9 9v0
q0 8 8.5 8zM105 74q25 -15 44 -17q23 -3 63.5 13.5t80.5 36.5t57 21q14 2 45 -17t61.5 -42t62.5 -38t48 -8q10 5 61.5 31t93.5 43.5t70 22.5q38 7 116 -60q44 53 71 115q-77 14 -166 27.5t-193 26t-192.5 19.5t-161.5 5.5t-104 -14.5q-74 -30 -114 -71q23 -50 57 -94z
M76 115q46 -6 77 15q33 22 46 26t34 -1q64 -41 113 -48.5t82 9.5t67 58q29 26 80 37q32 -16 151 -77q42 -21 82 -30.5t69.5 -8t60.5 4.5q19 29 39.5 73.5t29.5 78.5h-990q8 -30 25.5 -70.5t33.5 -66.5zM38 330v0q-2 -3 -3 -7q1 4 3 7zM475 -127q18 25 18 56v0q0 39 -28 67
t-67 28t-67 -28t-28 -67q0 -7 1 -13q81 -36 171 -43zM16 257h992q-1 -3 -2 -8h-988zM512 241l-39 -28zM463 206l-188 -131zM268 70l-97 -68zM512 241v-27v27zM512 205v-52v52zM512 143v-271v271zM512 241l38 -27zM563 205l132 -93zM702 107l88 -62zM797 40l55 -39zM236 176
q108 0 108 -3t-108 -3q-45 0 -76.5 1t-31.5 2q0 3 108 3zM977 169q-5 -10 -9 -19q-31 3 -31 9q0 8 40 10zM897 47q-3 -4 -7 -8q-54 0 -91 1h-2q-15 1 -23 1.5t-8 1.5t24 2h2q37 2 99 2h6zM772 -57q-10 -6 -20 -11q-35 -3 -85 -3q-119 0 -119 9.5t119 9.5q71 0 105 -5z
M200 -22q-10 8 -19 15h29q86 0 86 -7.5t-86 -7.5h-10zM87 98l-14 22q13 1 27 1q30 0 51 -3.5t21 -8t-21 -8t-51 -3.5h-13zM624.5 25q53.5 0 53.5 -7t-53.5 -7t-53.5 7t53.5 7zM185 236q64 0 109 -2t45 -5q0 -6 -153.5 -6t-153.5 6.5t153 6.5zM549 153q87 0 87 -5t-87 -5h-33
h-4q-51 2 -51 5t51 5h4h32h1zM772 113q120 0 120 -3t-120 -3h-67h-3q-49 1 -49 2.5t42 2.5h3q32 1 74 1zM882.5 211q90.5 0 90.5 -4.5t-90.5 -4.5t-90.5 4.5t90.5 4.5zM364 75q140 0 140 -3t-140 -3q-54 0 -94 1h-2q-43 1 -43 2.5t50 2.5h2h87zM543 214h7h4q99 0 99 -4
t-86 -5h-4h-20h-27h-4q-26 1 -45 1h-4q-31 2 -31 4t41 3h4q15 1 35 1h4h27z" />
    <glyph glyph-name="flamingo" unicode="&#xe63d;" 
d="M512 896q104 0 199 -40.5t163.5 -109t109 -163.5t40.5 -199t-40.5 -199t-109 -163.5t-163.5 -109t-199 -40.5t-199 40.5t-163.5 109t-109 163.5t-40.5 199t40.5 199t109 163.5t163.5 109t199 40.5zM936 602q8 0 15 -3q7 5 18 5h5q13 -27 23 -54q-7 -5 -16 -5t-15 4
q-6 -4 -15 -4q-8 0 -14 4q-7 -5 -16 -5q-8 0 -15 4h-5q-10 0 -17.5 5t-7.5 12t7.5 12t17.5 5h2q2 8 11 14t22 6zM542 755q78 0 133.5 -55t55.5 -133t-55.5 -133.5t-133.5 -55.5t-133 55.5t-55 133.5t55 133t133 55zM491 831l22 1q4 -1 14.5 -5.5t16.5 -5.5q9 0 8 4
q-7 -1 -9 5q-1 4 3 7.5t15 11.5q16 11 12 21q-2 -3 -12 -8q-4 -2 -8.5 -6t-9 -8.5l-6.5 -6.5q-9 -8 -16 -6q-22 4 -30 -4zM626 225l2 1v0h2v0q4 1 9 2v0q4 0 6 1h8q7 54 2 98q-3 3 -3.5 7t2.5 6v20v0q-2 22 -3 39v0q-1 11 -2 19v0h-1v0v0h-2.5h-2.5v0v0v0h-1v0h-2h-1v0h-1v0
v0v0v0v0h-1h-1v0v0v0v0v0v0v0v0h-1q-2 -1 -4 -1v0h-0.5t-1.5 -1v0v0h-1h-1v0v0h-1.5h-0.5v0v0h-1l-1 -1v0v0h-0.5h-1.5v0v0v0h-0.5h-0.5v0q-3 -1 -6 -1v0h-2v0v0v0v0v0v0v0v0h-2l-6 -7q0 1 0.5 3.5t1.5 4.5l1 1q1 1 3 2l-5 -1l6 5q0 2 11.5 2.5t14.5 -1.5h11q0 4 -1 7h-7
q-31 2 -51 22t-26 39q-6 18 2.5 43.5t24.5 45.5q16 17 10.5 35.5t-31.5 8.5q-4 -12 -16 -16q-10 -3 -16 1q-7 0 -11 -2q-1 -2 -5.5 -7t-5.5 -7q-7 -8 -11 -7q-7 0 0 23q3 11 7 14q7 7 18 7v0q3 6 10 11q4 2 9.5 2.5t8.5 0.5l3 -1q26 10 49 -6q13 -12 10 -32t-16 -37
q-9 -12 -15.5 -27.5t-6 -29t11.5 -15.5q4 2 12 5.5t28 8.5t36 3q14 -1 36 -17t36.5 -32.5t15.5 -22.5q1 -2 1 -3q5 -8 3 -9q-1 -1 -3 0.5t-3 3.5l-1 2q1 -1 1 -2t1 -4.5t-1 -3.5q-2 -1 -9 7l-8 8q-12 10 -15 11q-24 -15 -57 -20h7v-1h5h1q3 0 7 -1v0h2v0h1v0h3v0l1 -1v0h3v0
h1v0h2v0h1v0v0l4 -1v0h1v0v0h3v0h1v0v0h3v0h1v0v0l2 -1v0v0h1v0v0v0v0v0h3h1v0v0v0v0v0v0v0v0v0v0v0v0h1v0v0v0v0v0v0h1q2 2 5 2t5.5 -3t1 -6t-6.5 -3q-2 0 -4 1v0v0v0v0v0v0v0v0v0v0v0v0v0v0v0h-1v0v0v0v0v0v0v0v0v0v0v0v0v0v0v0v0v0v0v0v0v0v0v0v0v0v0v0v0h-1v0v0v0v0v0v0
v0v0v0v0v0v0v0v0v1v0v0v0v0v0v0v0v0q-2 1 -2 2h-1h-1h-1.5h-0.5h-1h-2h-4h-3h-1h-2v0h-1v0h-3h-1h-3v0v0h-2h-1v0h-3v0h-1v0h-2v0h-1h-2v0h-1v0h-2v0h-1v0v0q-8 -1 -10 -1v0v0h-3v0v0v0v0h-1h-2h-1h-2v0h-1v0v0h-2v0v0v0v0v0h-1v0v0v0h-1v-2v0v-1v0v-3v-1v-1v-2v-1v0v-2v0
v-1v0v-3v-1v0v-2l1 -1v-3v0v-2v-2v0q1 -34 4 -47v0v0v0v0v0v0v-2v0v-1v0v0v0v0h1v0v0v0v0v-1v0v0v0v0v0v0v0v0h1v0v0v0v0v0v0v0v0v0v0v0v0v0v0v0v0v0q0 -1 1 -2v0v0v0v0v0v0v0v0v0v0v0v0v0v0v0v0v-1v0v0v0v0v0v0v0v0v0v0v0v0v0v0v0v0v0v0v0v0v0v0v0v0v0v0v0v0v0v0v0v0v0v0v0
v0v0v0q0 -1 0.5 -2t0.5 -2v0v-1v0v-2v0v0v0v0v0v0v0v0v0v0v0v0v0v0v0h-1v0v0v0v0v0v-1v0v0v0v0v0v0v0v0v0v0v0v0v0v0v0v0v0v0v0v0v0v0v0v0v0v0v0v0v0v0v0v0v0v0v0v0v0v0v0v0v-1v0v0v0q0 -1 -1 -1v-2v-3v0v-3v0v-3v-21v-3v-6v0v-3v-3v-3v0v-4v-3v-1v-2v-1v-2v-3v0v-1v-2v-1
v-2v-1v0v-2v0v-3v-1v-3v-1v-1v-1v0v-3v-1v-2v-1v0v-3v-1v-2v0v-4v-1v0v0v0v0v0v0v0v0v0v0v0v0v0v0v0v0v0v0v0v0v0v0v0v0v0v0v0v0v0h1v0v0v0v0v0v0v0v0v0v0v0v0v0v0v0v0v0v0v0v0v0v0v0q0 -1 1 -1v-1q1 0 1 -1v0l1 -1v0l1 -1q1 -2 3 -5v0v0v0v0v0v0v0v0v0v0v0v0v0v0v0v0v0v0v0
v0v0v0v0v0v0v0v0v0v0v0v0v-2l2 -5q0 1 -4 4q-20 4 -28 3q-3 -1 -5 -4q1 2 1 3q-3 7 -8 9h-1l-6 -1q1 2 6 4zM692 425v0l17 -2h-56v0v1.5v0.5v1v2v0v1v0v1l6 -1v0h1h3v0h1l3 -1v0h1h3h1l4 -1v0v0v0h4h1l3 -1h1h3v0zM651 399zM268 744q14 0 27 -4q13 9 33 9q17 0 30 -7t16 -18
q18 -3 25 -15h4v0q16 0 27 -7.5t11 -18t-11 -18t-27 -7.5q-10 0 -18 3q-8 -18 -36 -18q-16 0 -27 7q-11 -7 -27 -7q-15 0 -25 6q-12 -8 -28 -8t-27 7h-9v0q-19 0 -32 9t-13 21.5t13 21.5t32 9h4q2 15 18.5 25t39.5 10zM276 791l21 1q4 -1 14.5 -5.5t16.5 -5.5q9 0 9 4
q-7 -1 -9 5q-1 4 2.5 7.5t15.5 11.5q16 11 11 21q-2 -3 -11 -8q-5 -2 -9 -6l-8.5 -8.5t-7.5 -6.5q-8 -8 -15 -6q-22 4 -30 -4zM10 284h1004q-23 -116 -94.5 -210t-178.5 -148t-229 -54t-229 54t-178.5 148t-94.5 210zM587 284h427q-2 -13 -6 -26q-56 -1 -116 -1
q-135 0 -231 6t-96 14q0 4 22 7zM776.5 239q185.5 0 185.5 -9t-185.5 -9t-185.5 9t185.5 9zM957 131q-1 -1 -4 -7q-43 -6 -165 -6q-177 0 -177 10t177 10q131 0 169 -7zM25 227q-2 4 -2 5q24 5 96 5q43 0 72.5 -2t29.5 -5q0 -8 -102 -8q-69 0 -94 5zM329.5 146
q226.5 0 226.5 -6t-226.5 -6t-226.5 6t226.5 6zM277 111q167 0 167 -5.5t-167 -5.5t-167 5.5t167 5.5zM520 76q185 0 185 -7t-185 -7t-185 7t185 7z" />
    <glyph glyph-name="arrow-left" unicode="&#xe76e;" 
d="M296 359l21 -21q5 -6 13 -9l397 -398q13 -12 30.5 -12t30.5 12l20 21q13 12 13 30t-13 30l-377 379l372 373q12 12 12 30t-13 31l-20 20q-13 13 -30.5 13t-30.5 -13l-425 -425q-13 -13 -12.5 -31t12.5 -30z" />
    <glyph glyph-name="ask-less" unicode="&#xe60a;" 
d="M542 25l344 351q11 11 11 26.5t-11 26.5t-26.5 11t-26.5 -11l-320 -326l-321 326q-10 11 -25.5 11t-26.5 -11t-11 -26.5t11 -26.5l344 -351q12 -12 29 -11q17 -1 29 11v0v0zM513 289q17 -1 29 11l344 350q11 11 11 27t-11 27t-26.5 11t-26.5 -11l-320 -326l-321 326
q-10 11 -25.5 11t-26.5 -11t-11 -27t11 -27l344 -350q12 -12 29 -11v0zM513 289z" />
    <glyph glyph-name="prize" unicode="&#xe600;" horiz-adv-x="1152" 
d="M904 776v60h-723v-60h-181v-241q0 -73 54 -127t127 -54v-60q11 -43 62 -81.5t112.5 -62.5t126.5 -37v-121h-181q-60 -90 -60 -120h602q0 11 -15 41t-30 55t-15 24h-181v121q65 13 126.5 37t112.5 62.5t63 81.5v60q74 9 127 59.5t53 121.5v241h-180zM181 474q-23 0 -42 19
t-19 42v120h61v-181zM687 324l-145 90l-144 -84l60 162l-157 103h181l60 162l60 -162h169l-139 -109l61 -162h-6zM964 535q0 -23 -19 -42t-41 -19v181h60v-120z" />
    <glyph glyph-name="box" unicode="&#xe601;" horiz-adv-x="1279" 
d="M915 836h-636h-1q-38 0 -68.5 -22.5t-41.5 -58.5l-168 -509v-254q0 -49 35.5 -84.5t84.5 -35.5h964q50 0 85.5 35.5t35.5 84.5v254l-173 508q-13 37 -44 59.5t-70 22.5h-3v0zM898 233l-120 -120h-362l-120 120h-178l147 441q6 19 22 30t35 11v0h550v0q19 0 34.5 -11
t22.5 -29l147 -442h-178z" />
    <glyph glyph-name="question" unicode="&#xe602;" horiz-adv-x="1088" 
d="M542 836v0q-98 0 -187 -38.5t-153.5 -103t-103 -153.5t-38.5 -187t38.5 -187.5t103 -154t153.5 -102.5t187 -38v0q98 0 187.5 38t154 102.5t102.5 154t38 187.5t-38 187t-102.5 153.5t-154 103t-187.5 38.5zM591 105.5q-1 -31.5 -22 -50.5t-53 -18q-30 1 -50 21t-19 51.5
t22 51t52 18.5t51 -21.5t19 -52zM709 413q-11 -15 -62 -55l-31 -21q-23 -17 -31 -42q-4 -13 -5 -45q0 -10 -11 -10h-94q-12 0 -11 9q2 65 24 100q10 16 31.5 34t37.5 29l17 10q14 11 23 24q19 26 19 48q0 33 -18 55q-22 28 -62 28q-39 0 -61 -36q-3 -5 -5.5 -11t-3.5 -10
t-1.5 -11.5t-0.5 -11v-12v-10.5h-118q0 120 67 166q44 30 116 30q93 0 150 -43q59 -45 59 -127q0 -48 -29 -88z" />
    <glyph glyph-name="info" unicode="&#xe603;" 
d="M57 156q0 -47 33.5 -80t80.5 -33h455v-171l170 171h57q47 0 80.5 33t33.5 80v114h-910v-114v0zM853 839h-682q-47 0 -80.5 -33.5t-33.5 -80.5v-113h910v113q0 47 -33.5 80.5t-80.5 33.5v0zM57 555h910v-228h-910v228z" />
    <glyph glyph-name="search" unicode="&#xe604;" 
d="M732 252l292 -295l-85 -85l-295 292v20q-43 -33 -94 -55zM398 213q118 0 201.5 83.5t83.5 201.5t-83.5 201t-201.5 83t-201 -83t-83 -201t83 -201.5t201 -83.5z" />
    <glyph glyph-name="addtion" unicode="&#xe607;" 
d="M213 716q0 49 35 84.5t85 35.5h362l241 -241v-602q0 -50 -35.5 -85.5t-85.5 -35.5h-481h-1q-50 0 -85 35t-35 85v724zM634 535h-120v-181h-181v-121h181v-180h120v180h181v121h-181v181z" />
    <glyph glyph-name="edit" unicode="&#xe608;" horiz-adv-x="1169" 
d="M672 600l-544 -544v-184h184l544 544zM1014 620l-139 138q-10 10 -23 10t-22 -10l-87 -86l184 -185l87 87q9 10 9 23t-9 23z" />
    <glyph glyph-name="banner" unicode="&#xe609;" horiz-adv-x="1097" 
d="M192 768v-896h128v384h230l26 -64h384v512h-352l-32 64h-384z" />
    <glyph glyph-name="report" unicode="&#xe606;" 
d="M922 838q-44 -10 -139.5 -19.5t-154.5 -0.5q-40 6 -88 22l-87 29t-87.5 22t-112 3t-139.5 -30q-37 -16 -51 -40.5t-14 -64.5l-2 -834q0 -24 16 -37q15 -16 36 -16h2q21 0 37 16q16 14 16 37v340q48 13 96 18t90 2t77.5 -8t68 -15t52 -17.5t39 -16l19.5 -8.5
q59 -24 130.5 -19.5t127.5 19t92 34.5q31 14 31 46v495q0 23 -15 35.5t-40 7.5v0z" />
  </font>
</defs>
</svg>
